<svg t="1572598516245" class="icon" viewBox="0 0 1024 1024" version="1.1" xmlns="http://www.w3.org/2000/svg" p-id="2428" width="200" height="200"><path d="M954.35 794.6c2.25 8.1 4.05 18.45 5.85 30.6 1.35 11.7 2.25 23.85 2.25 36s-0.9 23.85-2.7 34.2c-1.8 10.8-4.5 18.9-8.1 23.85-2.7 3.6-9 7.2-20.7 10.8-11.7 3.6-26.1 6.75-43.2 9.45-17.55 3.15-36.45 5.85-57.15 8.55-20.7 2.7-41.85 4.95-63 6.75-21.15 1.8-41.4 3.15-61.2 4.5-19.35 0.9-36.9 1.8-51.75 1.8-14.85 0-31.95-0.9-51.3-1.8-18.9-1.35-39.15-2.7-60.3-4.5-20.7-1.8-41.4-4.05-61.65-5.85-20.25-2.25-38.7-4.5-55.8-7.2-17.1-2.7-31.05-5.4-42.75-8.1-11.7-2.7-18.9-5.4-22.05-7.65-4.5-4.05-8.55-16.65-11.7-37.35-2.7-20.7-2.25-47.7 2.7-80.1 2.7-18.9 10.8-33.3 22.5-42.75 12.15-9.45 26.55-17.55 43.2-23.4 16.65-5.85 33.75-10.8 51.3-15.75 17.55-4.5 33.3-10.8 46.8-20.25 10.8-7.2 18.9-13.95 24.3-19.35 5.85-5.85 9.45-12.15 12.6-17.55 2.7-5.85 4.05-12.6 4.05-18.9 0-6.3-0.45-13.95-0.9-22.5-1.35-11.7-5.4-21.15-12.6-28.35-7.2-6.75-14.85-13.5-23.4-20.25-4.05-3.6-7.65-8.55-10.8-15.3-3.15-6.3-5.85-13.05-8.55-19.35-2.7-7.2-4.5-15.3-7.2-23.85-3.6-1.35-7.2-3.15-10.8-5.4-3.15-2.7-5.85-5.85-9-10.8-3.6-4.5-6.3-11.25-9-19.35-3.15-8.1-4.05-16.2-3.6-23.85 0.9-7.65 2.25-13.5 4.5-18.45 2.25-5.85 5.85-11.25 9.45-15.75-0.45-18.9 0.45-38.7 2.7-58.05 2.7-16.65 5.85-33.75 10.8-52.2 4.95-18 12.6-35.1 23.85-50.4 9.45-13.95 20.25-25.65 32.4-34.65 11.7-9 23.85-15.75 36.45-20.7 12.6-4.95 25.2-8.55 37.35-10.35 12.6-1.8 24.3-2.7 35.55-2.7 30.6 0 57.15 6.3 81.45 18.9 23.85 12.6 41.4 25.65 52.65 40.05 13.05 16.2 22.5 33.75 28.8 54 6.3 19.8 10.8 38.7 13.95 55.35 3.15 20.25 4.05 40.5 3.6 60.3 2.7 2.7 5.85 5.85 8.1 9.45 1.8 3.6 3.6 8.1 4.95 13.95 1.35 5.85 1.8 12.6 0.45 20.7-1.35 10.8-3.6 19.35-7.2 25.65-3.6 6.3-7.2 11.7-10.8 15.3-4.05 4.05-9 6.75-13.95 8.1-2.7 9-4.5 17.1-7.2 23.85-2.7 6.3-5.4 13.05-9 19.35s-7.65 11.25-11.25 13.95c-4.5 4.05-9 7.65-13.05 10.8-4.05 3.15-7.2 5.85-10.35 9-3.15 3.15-5.85 7.2-7.65 10.8-2.25 4.05-4.05 9-4.95 15.3-0.9 7.65-1.8 15.75-1.35 23.85 0.45 8.1 2.25 15.75 5.85 23.4 3.6 7.65 9 15.3 17.55 22.5 8.1 7.2 18.9 13.5 33.75 18.9 12.6 5.4 26.1 9.9 41.4 13.95 14.85 3.6 29.7 8.55 43.65 13.95 13.95 5.4 26.55 12.6 37.35 20.7 10.8 10.8 18.9 21.15 23.85 34.2M478.25 630.8c-1.35 6.75-2.7 11.7-4.5 15.3-1.8 3.6-5.85 7.65-12.6 11.7-15.75 9.45-32.4 17.55-49.95 22.95-18 5.85-35.1 12.6-51.3 19.35-16.2 7.2-30.6 16.65-42.75 28.35-12.15 11.7-19.8 27.9-22.5 49.5-0.9 6.75-1.8 13.05-2.25 18.9-0.45 6.3-0.9 12.15-1.35 17.55-0.9 0.9-1.35 2.25-1.8 3.15-0.45 0.9-0.9 1.8-1.8 3.15-23.4-1.8-46.8-4.05-70.2-6.3-23.85-2.7-45.45-5.4-65.25-8.1-19.8-3.15-36.9-5.85-50.4-9-13.95-2.7-22.5-5.85-25.65-9-5.4-4.05-9-16.65-12.15-37.35-2.7-20.7-1.8-47.7 3.15-81 2.7-18.45 10.8-32.4 22.5-42.3 12.6-9.45 26.55-17.55 43.65-22.95 16.65-5.85 33.75-10.8 51.3-15.75 17.55-4.5 33.3-11.25 46.8-19.35 10.8-7.2 18.9-13.95 24.75-19.35 5.85-5.85 9.45-12.15 12.15-18.45 2.7-6.3 3.6-12.6 3.6-18.9 0-6.3-0.45-13.95-0.9-21.15-0.9-12.15-5.4-21.15-12.15-28.35-6.75-6.75-14.4-13.95-22.5-20.7-4.5-3.15-9-7.65-12.15-13.95-3.15-6.3-5.85-13.05-8.55-19.35-2.7-7.2-4.5-15.3-7.2-23.85-3.6-1.35-7.2-3.15-10.8-5.4-3.15-2.7-5.85-5.85-9-10.8-3.15-4.5-6.3-11.25-9-19.35-2.7-8.1-4.05-16.2-3.6-23.4 0.9-7.65 2.25-13.95 4.5-18.9 2.25-6.3 5.85-12.15 9.45-15.75-0.9-18.9 0.45-38.7 2.7-58.05 2.7-16.2 6.3-33.3 11.7-51.75 5.4-18.45 13.5-35.1 23.85-49.95 9.45-13.95 20.25-25.65 32.4-34.65 11.7-9 23.85-15.75 36-20.7 12.15-4.95 24.3-8.55 37.35-10.35 12.6-1.8 24.75-2.7 36.45-2.7C399.5 62.45 426.5 68.75 450.35 81.35c23.85 12.6 41.85 25.65 53.55 40.5 7.65 9.9 12.6 19.35 14.4 27.9 2.25 8.55 4.95 18.9 8.55 30.15-11.25 6.3-23.4 16.2-36 28.8-12.6 12.6-23.85 25.65-33.75 38.7-11.7 16.65-20.7 35.1-27 55.35-5.85 20.25-10.35 38.7-13.5 56.25-2.7 20.7-4.05 41.4-4.05 62.1-4.5 5.4-8.55 11.25-10.8 17.55-2.7 5.85-4.05 13.05-4.5 20.7-0.9 8.1 0.9 16.65 3.6 26.1 3.15 10.35 6.3 18 9.45 22.95 3.6 5.4 6.75 9.45 9.9 12.6 3.6 3.6 7.2 5.85 10.8 7.2 2.7 9.45 4.5 18.45 7.2 27 2.7 7.2 5.4 14.4 8.55 22.05 3.6 7.65 7.65 12.6 12.15 16.65 4.05 3.6 7.65 6.3 9.45 9 2.7 2.7 4.05 4.5 5.85 6.75 1.35 2.25 2.7 4.95 2.7 8.55-0.45 1.8 0 6.3 1.35 12.6" p-id="2429"></path></svg>
