<svg t="1572598661958" class="icon" viewBox="0 0 1024 1024" version="1.1" xmlns="http://www.w3.org/2000/svg" p-id="2428" width="200" height="200"><path d="M512 32C295.52 32 119.36 201.44 119.36 409.28c0 200.64 351.84 557.28 366.72 572.16 6.72 6.72 16.32 10.56 25.92 10.56h0.96c10.08 0 19.68-4.32 25.92-11.52 0 0 365.76-348.96 365.76-571.2C904.64 201.44 728.48 32 512 32z m0 548.64c-98.4 0-178.56-76.8-178.56-171.36 0-94.56 79.68-171.36 178.56-171.36 98.4 0 178.56 76.8 178.56 171.36 0 94.56-80.16 171.36-178.56 171.36z" p-id="2429"></path></svg>
