<svg t="1572254754513" class="icon" viewBox="0 0 1024 1024" version="1.1" xmlns="http://www.w3.org/2000/svg" p-id="5670" width="200" height="200"><path d="M873.857859 150.142141C786.318495 62.602778 670.111269 9.874389 546.737079 1.171645 264.665795-17.769621 20.477044 195.191638 1.535778 477.262921c-1.023852 6.143113-1.535778 11.7743-1.535778 17.405488v399.302361c0 71.669654 58.359576 129.517304 130.02923 130.02923h396.74273c4.607335 0 9.726596-0.511926 14.333931-1.023852 270.808909-15.357783 482.746316-239.581416 482.746316-510.902251 0.511926-135.660417-53.752241-266.201574-149.994348-361.931756z m-335.311598 461.24542h-286.678618c-22.012822 0-32.763271-10.750448-32.763271-32.763271s10.750448-32.763271 32.763271-32.763271h286.678618c22.012822 0 32.763271 10.750448 32.76327 32.763271s-10.750448 32.763271-32.76327 32.763271zM675.742457 452.178542H251.867643c-22.012822 0-32.763271-10.750448-32.763271-32.76327 0-22.012822 10.750448-32.763271 32.763271-32.763271H675.742457c22.012822 0 32.763271 10.750448 32.76327 32.763271 0 22.012822-10.750448 32.763271-32.76327 32.76327z" p-id="5671"></path></svg>
