<svg t="1572243480716" class="icon" viewBox="0 0 1024 1024" version="1.1" xmlns="http://www.w3.org/2000/svg" p-id="2561" width="200" height="200"><path d="M1008.14935 254.976c16.384 23.552 19.968 49.664 11.264 79.36L849.94135 891.392c-7.68 26.112-23.552 48.128-47.104 66.048s-48.64 26.624-75.264 26.624H160.27735c-31.744 0-61.952-11.264-91.136-32.768-29.184-22.016-49.664-49.152-61.44-80.896-9.728-27.648-10.24-53.76-1.536-78.336 0-1.536 0.512-7.168 2.048-16.384 1.536-9.728 2.048-16.896 2.56-23.04 0.512-3.072-0.512-7.68-2.048-13.312-1.536-5.632-2.048-9.728-2.048-12.288 1.024-4.608 2.56-8.704 5.12-12.8s5.632-9.216 10.24-14.336c4.096-5.632 7.68-10.24 10.24-14.336 9.728-15.36 18.944-34.304 27.648-56.32 9.216-22.016 15.36-40.96 18.432-56.32 1.536-4.096 1.536-10.24 0.512-18.432s-1.024-13.824-0.512-17.408c1.536-4.608 4.608-10.24 10.752-17.408 5.632-7.168 9.216-11.776 10.752-14.336 8.704-14.848 17.408-33.792 26.112-56.832 8.704-23.04 13.824-41.472 15.36-55.296 0.512-3.584 0-10.24-1.536-19.968s-1.536-15.36 0.512-17.408c1.536-5.12 6.144-11.776 13.824-18.944 7.68-7.168 11.776-11.776 13.824-13.824 7.68-10.752 16.384-28.16 26.112-52.224 9.728-24.064 15.36-44.032 16.896-59.392 0.512-3.072-0.512-8.704-2.048-15.872-1.536-7.168-2.048-12.8-1.536-16.384 1.024-3.072 2.56-7.168 5.632-11.264 3.072-4.096 6.656-8.704 11.264-14.336 4.608-5.12 8.192-9.728 10.752-12.8 3.072-5.12 6.656-11.264 10.24-18.944s6.656-14.848 9.216-21.504c2.56-6.656 6.144-14.336 9.728-22.016 4.096-8.192 8.192-14.336 12.288-19.968 4.096-5.12 9.728-10.24 16.384-14.336s14.336-7.168 22.016-7.168c8.192-0.512 17.92 1.024 29.184 3.584l-0.512 2.048c15.36-3.584 26.112-5.632 31.232-5.632h467.968c30.208 0 53.76 11.776 70.144 34.304 16.384 23.04 19.968 49.664 11.264 79.872l-168.448 557.568c-14.848 48.64-29.184 80.384-44.032 94.72-14.848 14.336-40.96 21.504-78.848 21.504H96.27735c-11.264 0-18.944 3.072-23.552 9.216-4.608 6.656-4.608 15.36-0.512 26.624 9.728 28.672 39.424 43.008 88.576 43.008h567.808c11.776 0 23.552-3.072 34.304-9.728 11.264-6.656 18.432-14.848 21.504-25.6l184.32-607.232c3.072-9.216 4.096-20.992 3.072-35.328 15.872 8.704 27.648 17.408 36.352 29.184z m-705.536 158.72c-1.536 5.12-1.536 10.24 1.536 13.824 2.56 4.096 6.656 5.632 12.288 5.632h373.76c5.12 0 10.752-2.048 15.872-5.632 5.12-4.096 8.704-8.704 10.24-13.824l12.8-39.424c1.536-5.12 1.536-10.24-1.536-13.824-2.56-4.096-6.656-5.632-12.288-5.632h-373.76c-5.12 0-10.752 2.048-15.872 5.632-5.12 4.096-8.704 8.704-10.24 13.824l-12.8 39.424z m51.2-157.696c-1.536 5.12-1.536 10.24 1.536 13.824 2.56 4.096 6.656 5.632 12.288 5.632h373.76c5.12 0 10.752-2.048 15.872-5.632 5.12-4.096 8.704-8.704 10.24-13.824l12.8-39.424c1.536-5.12 1.536-10.24-1.536-13.824-2.56-4.096-6.656-5.632-12.288-5.632h-373.76c-5.12 0-10.752 2.048-15.872 5.632-5.12 4.096-8.704 8.704-10.24 13.824L353.81335 256z" p-id="2562"></path></svg>
