<svg t="1572677709871" class="icon" viewBox="0 0 1024 1024" version="1.1" xmlns="http://www.w3.org/2000/svg" p-id="3518" width="30" height="30"><path d="M13.312 175.616h56.32v-13.312H0v70.144h13.312V175.616z m0 672.768h56.32v13.312H0v-70.144h13.312v56.832zM1010.688 175.616h-56.32v-13.312H1024v70.144h-13.312V175.616z m0 672.768h-56.32v13.312H1024v-70.144h-13.312v56.832z" p-id="3519"></path><path d="M695.296 457.216l3.584 1.024 1.024 3.584c3.072 11.776 6.656 22.528 11.776 31.744 4.608 8.192 10.752 14.848 18.944 18.944 3.584 1.536 14.336 2.56 25.6 2.56 12.288 0 24.064-0.512 28.16-2.048 9.216-3.584 15.36-9.728 20.48-18.432 5.632-9.216 9.216-20.48 12.8-33.28l1.024-3.584 3.584-1.024c3.072-1.024 5.12-3.584 6.656-7.68 1.536-4.608 2.56-10.24 3.072-16.896-0.512 0-1.024-0.512-1.536-0.512-1.024-0.512-2.56-0.512-3.584-0.512l-6.144 0.512-1.024-6.144c-1.536-7.168-3.584-13.824-6.656-19.968-19.968 4.096-49.664 7.168-73.216-6.144-9.216-5.12-22.528 5.12-33.28 4.096-3.584 6.656-6.144 14.336-7.168 21.504l-1.024 6.656-6.656-0.512c-1.024 0-2.56 0-3.584 0.512-0.512 0-1.024 0.512-1.536 0.512 0 7.168 1.024 12.8 3.072 17.408 0 4.608 2.56 7.168 5.632 7.68z" p-id="3520"></path><path d="M929.28 218.112H88.064c-16.384 0-29.696 13.312-29.696 29.696v519.68c0 16.384 13.312 29.696 29.696 29.696h841.216c16.384 0 29.696-13.312 29.696-29.696V247.808c0-16.384-13.312-29.696-29.696-29.696zM671.232 424.96l3.072-2.048c0.512-0.512 1.536-1.024 2.56-1.536-3.584-42.496-2.048-58.368 13.824-76.8 30.72-25.088 101.888-24.576 133.12-1.536 21.504 19.968 23.04 42.496 16.384 77.824 1.024 0.512 2.048 1.024 3.072 2.048l3.072 2.048v3.584c0 10.752-1.024 19.456-4.096 26.624-2.56 6.144-6.144 11.264-11.264 13.824-3.584 12.288-7.68 24.064-13.312 33.792-6.656 11.264-15.36 19.456-27.648 24.064-5.632 2.048-19.968 3.072-33.28 2.56-13.312 0-26.624-1.536-31.744-4.096-11.264-5.12-19.456-13.824-25.088-24.576-5.12-9.216-8.704-19.968-11.776-31.744-5.12-2.56-9.216-7.68-11.776-13.824-3.072-7.168-4.096-16.384-4.096-27.136l-1.024-3.072zM228.864 308.736h194.048v33.28H228.864v-33.28z m0 82.944h194.048V424.96H228.864v-33.28z m0 82.944h194.048v33.28H228.864v-33.28zM140.8 308.736h64.512v33.28H140.8v-33.28z m0 82.944h64.512V424.96H140.8v-33.28z m0 82.944h64.512v33.28H140.8v-33.28z m171.008 250.88H140.8v-33.28h171.008v33.28z m312.32 0h-291.84v-33.28h291.84v33.28z m275.456-60.928h-281.088c0.512-33.28 6.656-90.112 39.936-118.784l45.568 0.512 42.496 70.656 8.192-52.736-5.632-9.728 0.512-9.728c11.264-0.512 14.336-0.512 25.088 0l0.512 9.728-5.632 9.728 8.192 53.248 33.28-71.168 50.176-1.536c25.6 24.064 42.496 81.92 38.4 119.808z" p-id="3521"></path></svg>
