<svg t="1572677771769" class="icon" viewBox="0 0 1024 1024" version="1.1" xmlns="http://www.w3.org/2000/svg" p-id="3634" width="30" height="30"><path d="M956.416 767.488V247.808c0-7.68-3.072-15.36-8.704-20.992-5.632-5.632-13.312-8.704-20.992-8.704H85.504c-16.384 0-29.696 13.312-29.696 29.696v519.68c0 16.384 13.312 29.696 29.696 29.696H926.72c16.384 0 29.696-13.312 29.696-29.696z m-625.664-481.28h64.512v33.28H330.752v-33.28z m0 82.944h64.512v33.28H330.752v-33.28z m0 82.944h64.512v33.28H330.752v-33.28zM98.816 353.28c0-49.152 39.936-89.6 89.6-89.6S277.504 303.616 277.504 353.28c0 49.152-39.936 89.6-89.6 89.6S98.816 402.432 98.816 353.28z m185.856 369.664H137.728v-33.28h146.432v33.28z m0-65.536H137.728v-33.28h146.432v33.28z m531.456 65.536H317.44v-33.28h498.688v33.28z m0-65.536H317.44v-33.28h498.688v33.28z m0-171.52H414.72v-33.28h401.408v33.28z m0-83.456H414.72v-33.28h401.408v33.28z m0-83.456H414.72v-33.28h401.408v33.28z" p-id="3635"></path><path d="M15.872 179.2H71.68v-13.312H2.56v69.12h13.312V179.2z m0 665.6H71.68v13.312H2.56v-69.12h13.312V844.8zM1003.008 179.2H947.2v-13.312h69.12v69.12h-13.312V179.2z m0 665.6H947.2v13.312h69.12v-69.12h-13.312V844.8z" p-id="3636"></path></svg>
