<svg t="1571391305309" class="icon" viewBox="0 0 1024 1024" version="1.1" xmlns="http://www.w3.org/2000/svg" p-id="3505" width="200" height="200"><path d="M927.027 297.227h-119.02c-6.32-75.256-35.798-145.234-84.47-199.623C667.325 34.66 592.178 0 512.041 0s-155.27 34.66-211.537 97.604c-48.63 54.403-78.04 124.367-84.429 199.623H96.973a61.765 61.765 0 0 0-61.696 61.697v603.38A61.765 61.765 0 0 0 96.973 1024h830.054a61.765 61.765 0 0 0 61.696-61.697v-603.38a61.765 61.765 0 0 0-61.696-61.696zM512.04 68.552c116.826 0 213.457 100.086 227.085 228.675h-454.17c13.56-128.59 110.26-228.675 227.085-228.675z m408.13 886.896H103.83v-589.67h110.834v8.063c0 18.413-0.123 38.197-0.137 56.212a65.645 65.645 0 1 0 68.552 0.919c0-18.125 0.082-38.211 0.137-56.885v-8.226h457.652c0 19.551 0.11 42.009 0.082 64.26a65.645 65.645 0 1 0 68.552 0.906c0-22.568 0-45.34-0.082-65.166h110.766z" p-id="3506"></path></svg>
