<svg t="1571992714561" class="icon" viewBox="0 0 1024 1024" version="1.1" xmlns="http://www.w3.org/2000/svg" p-id="3368" width="200" height="200"><path d="M907.776 44.544H117.76C52.736 44.544 0 97.28 0 160.768v526.336c0 65.024 52.736 117.76 117.76 117.76h292.352v117.76H351.232c-16.384 0-28.672 13.824-28.672 28.672 0 16.384 13.824 28.672 28.672 28.672H701.44c10.752 0 20.992-4.608 25.6-14.848 6.144-9.216 6.144-20.992 0-30.208-6.144-9.216-14.848-14.848-25.6-14.848h-58.88v-117.76H906.24c65.024 0 117.76-52.736 117.76-117.76V160.768c1.536-63.488-51.2-116.224-116.224-116.224zM422.4 294.912c0-10.752 12.288-17.92 20.992-12.288L595.456 384c7.68 6.144 7.68 17.92 0 22.528L443.392 507.392c-9.216 6.144-20.992 0-20.992-12.288V294.912z m544.256 392.192c0 31.744-25.6 58.88-58.88 58.88H117.76c-31.744 0-58.88-25.6-58.88-58.88v-58.88h907.776v58.88z" p-id="3369"></path></svg>
