<svg t="1572683670872" class="icon" viewBox="0 0 1026 1024" version="1.1" xmlns="http://www.w3.org/2000/svg" p-id="3863" width="30" height="30"><path d="M875.883884 173.741742c-47.663664-94.302302-101.98999-16.4004-166.566567 37.413413 72.776777 133.765766 148.116116 301.86987 80.976977 462.798799-30.238238 72.776777-88.152152 138.378378-171.691691 194.754755-79.951952 53.813814-186.554555 101.477477-316.732733 141.453453 1079.351351-129.153153 652.940941-664.728729 574.014014-836.42042z m-256.256256-74.826827l-1.537538-3.075075c-27.163163-36.900901-76.364364-18.45045-89.68969 28.700701-9.737738 33.825826-34.338338 65.089089-59.451451 84.052052 38.438438 77.901902 74.826827 175.279279 76.876877 282.906906 4.1001 192.704705-100.452452 364.908909-310.582583 512 853.333333-234.730731 502.262262-674.978979 384.384385-904.584584zM502.774775 364.396396zM255.231231 957.885886c0.512513 0 0.512513 0 0 0 2.562563-2.05005 4.612613-3.587588 6.662663-5.125125-1.025025 1.025025-2.05005 1.537538-3.587588 2.562562 1.537538-1.025025 3.075075-2.562563 4.612613-3.587587l-0.512513 0.512512c174.254254-134.278278 242.418418-273.681682 255.743744-401.80981v-0.512512c1.025025-7.687688 1.537538-15.375375 2.05005-23.575576v-1.537537c0-2.05005 0-4.612613 0.512513-6.662663v-2.562562-5.637638-3.587588-4.612612-4.1001-4.1001-5.125126-3.075075c0-2.05005 0-4.1001-0.512513-6.15015v-2.05005c-1.537538-27.163163-5.125125-53.301301-10.25025-78.414414-0.512513-1.025025-0.512513-2.562563-1.025025-3.587588 0-0.512513-0.512513-1.537538-0.512513-2.05005-0.512513-2.05005-1.025025-4.612613-1.537537-6.662663-1.537538-6.662663-3.075075-13.837838-5.125125-20.5005v-0.512513c-1.025025-3.075075-1.537538-6.15015-2.562563-9.225225C483.811812 302.382382 462.798799 252.668669 440.760761 210.13013c-32.288288-66.114114-66.626627-116.34034-83.027027-146.066066-59.963964-97.88989-131.715716-71.751752-126.078078 6.15015C241.393393 208.592593 0 302.382382 0 302.382382l154.778779 721.617618 6.662662-1.537538c21.013013-13.325325 41.001001-26.138138 59.963964-39.463463 2.562563-1.537538 4.612613-3.587588 7.175176-5.125125 6.662663-4.612613 13.325325-9.737738 19.987988-14.862863 2.05005-1.537538 4.612613-3.075075 6.662662-5.125125z m-6.662662 5.637638c-0.512513 0-0.512513 0.512513-1.025025 0.512512 0 0 0.512513-0.512513 1.025025-0.512512z" p-id="3864"></path></svg>
