<svg t="1578470542650" class="icon" viewBox="0 0 1024 1024" version="1.1" xmlns="http://www.w3.org/2000/svg" p-id="1580" width="200" height="200"><path d="M388.83795854 988.61465827c-10.09327331 0-20.12134741-4.03777536-27.40168363-12.11216099-95.34179328-105.89962126-249.57362973-106.92536434-252.7672923-106.92536547h-0.23169479c-20.12251136 0-36.53557931-16.11617166-36.68460771-36.07102464-0.14902955-20.08641877 16.04980736-36.43661312 36.25498282-36.63570831 7.61216114-0.39469625 189.79057209-0.19676615 308.13185024 131.18461611 13.50232974 14.95653376 12.17852643 37.95834766-2.92820195 51.36054841-6.96597731 6.15562809-15.70401166 9.1990949-24.37335268 9.19909489m245.8339146-0.06520035c-8.90219975 0-17.83700025-3.17736163-24.91824242-9.69741312-14.86106169-13.60013085-15.77037597-36.63337927-1.98512299-51.35938333C730.31289059 796.24284387 908.81795072 796.40817437 915.83399253 796.67479779c20.25407715 0.23053085 36.50297856 16.67736235 36.27244772 36.73234432-0.20025913 19.95601693-16.55045461 36.00466034-36.63687225 36.00466034h-0.29805909c-3.04230286 0-154.14800725 0.99430741-253.625377 107.490048-7.18370019 7.7413979-17.04527986 11.64760747-26.87425877 11.64760747m-64.63234731-184.86094734h-116.17335978c-3.68965063 0-7.2978011-0.56119069-10.70685754-1.62069845-124.01721571-15.78784085-229.4196827-87.13817088-297.35979235-201.57323834-78.84606123-132.90428075-96.93105607-305.12214699-44.90802403-428.56187221 5.60957326-13.23687026 18.58214912-22.00634027 33.11022307-22.30440049l11.03635229-0.09896506c69.82743154 0 135.05473309 13.07154091 194.42330282 38.95032605 42.87283655-77.73648782 91.85123669-136.74179698 145.86055452-175.72588771a37.95019776 37.95019776 0 0 1 9.74631482-6.05549796c11.33324857-4.86558947 24.50491847-3.80724451 34.86248618 2.87813632a34.16390997 34.16390997 0 0 1 5.03091883 3.90504562c54.14088477 39.41488071 101.76055182 97.55977501 144.88254805 176.94956202 60.52704256-27.10246059 127.24464185-40.87024867 198.92446663-40.87024867l11.18538297 0.13156579c14.56067357 0.26662343 27.53324942 9.0011648 33.12768683 22.30556445 52.0544677 123.43856128 33.98460871 295.65642866-44.94178873 428.56070827-67.94243755 114.36870315-173.31113984 185.78539747-297.27945614 201.57207438-3.48939264 0.96170781-7.08007822 1.55782713-10.82095844 1.55782599m-109.65447225-72.73816861h103.13674866c0.76028473-0.13389369 1.5717979-0.26662343 2.38214827-0.33182378 132.57245582-14.62703901 208.62304483-98.94877981 249.06133959-167.02278315 61.88461056-104.40932352 80.68215467-240.75525917 48.71410574-341.19317163-66.71759929 2.15161742-127.87219683 18.36559019-181.94788125 48.34851613-8.86843506 4.83182478-19.32496896 5.89133255-28.85472369 2.9794304a36.60077966 36.60077966 0 0 1-22.00983439-18.79870692c-37.18059805-75.3869403-77.02277461-130.85046329-121.23687936-168.6434816-44.24554041 37.72548779-84.98422443 93.58720114-121.35330929 166.52446379-4.41733575 8.86960014-12.27749149 15.55381817-21.80841017 18.53324857-9.53091982 3.01203115-19.79068757 1.98512299-28.59392228-2.71280697-52.93234631-28.52755683-112.65020359-44.08021106-177.59574584-46.19922774-31.96804893 100.43907755-13.18796971 236.81644885 48.73040554 341.16057202 40.43945984 68.07400334 116.42251947 152.36197945 248.96237568 167.02278201 0.80802133 0.0663643 1.6032347 0.19909405 2.41358279 0.33298887m51.29418297 289.36807083c-20.23544832 0-36.65084416-16.28150215-36.65084416-36.40284957V767.28566215c0-20.08874667 16.41423189-36.33532018 36.65084416-36.33532018 20.23777621 0 36.65200811 16.24657351 36.65200811 36.33532018V983.91672832c-0.01746489 20.12018233-16.41423189 36.40168448-36.65200811 36.40168448m0 0" p-id="1581"></path></svg>
