<svg t="1571900470408" class="icon" viewBox="0 0 1024 1024" version="1.1" xmlns="http://www.w3.org/2000/svg" p-id="2321" width="200" height="200"><path d="M638.464 885.248h266.24c36.352 1.536 66.56-27.136 68.096-63.488V154.112c0-36.352-29.696-66.048-66.048-66.048h-250.88c-54.784 0-105.984 25.6-138.752 69.632l-5.12 6.144-4.608-6.144C474.624 113.664 423.424 87.552 368.64 87.552H116.736c-36.352 0.512-65.536 30.208-65.536 66.56v664.064c0 36.352 29.184 65.536 65.536 65.536h266.752c70.144 70.144 183.296 70.144 253.44 0l1.536 1.536z m-241.664-61.44H109.056v-675.84H368.64c63.488 0 115.2 51.712 115.2 115.2v616.448c-4.608 15.872 4.608 32.256 20.48 36.864 15.872 4.608 32.256-4.608 36.864-20.48 1.536-5.632 1.536-11.264 0-16.384V261.632c0-63.488 51.712-115.2 115.2-115.2h258.56v677.376h-287.744c-8.704 0-16.896 3.584-22.528 10.24-43.008 51.2-119.296 57.856-170.496 14.848-5.632-4.608-10.752-9.728-14.848-14.848-5.632-6.656-13.824-10.24-22.528-10.24z" p-id="2322"></path></svg>
