<svg t="1578290309901" class="icon" viewBox="0 0 1024 1024" version="1.1" xmlns="http://www.w3.org/2000/svg" p-id="19389" data-spm-anchor-id="a313x.7781069.0.i14" width="200" height="200"><path d="M357.888 355.328H242.176c-6.144 0-10.752-6.144-10.752-13.824v-0.512c0-7.68 4.608-13.824 10.752-13.824h81.92c6.656 0 12.288-6.144 12.288-13.824V312.32c0-7.68-5.632-13.824-12.288-13.824H132.608c-6.656 0-12.288 6.144-12.288 13.824v0.512c0 7.68 5.632 13.824 12.288 13.824h29.184c6.144 0 10.752 6.144 10.752 13.824v0.512c0 7.68-4.608 13.824-10.752 13.824H14.336c-7.68 0-14.336 6.656-14.336 14.336S6.656 384 14.336 384h95.744c7.68 0 13.824 6.144 13.824 13.824v0.512c0 7.68-6.144 13.824-13.824 13.824h-33.792c-7.68 0-13.824 6.144-13.824 13.824v0.512c0 7.68 6.144 13.824 13.824 13.824H291.84c7.68 0 13.824-6.144 13.824-13.824v-0.512c0-7.68-6.144-13.824-13.824-13.824H214.016c-7.68 0-13.824-6.144-13.824-13.824v-0.512c0-7.68 6.144-13.824 13.824-13.824h143.872c7.68 0 14.336-6.656 14.336-14.336s-6.656-14.336-14.336-14.336zM1009.664 591.872h-115.712c-6.144 0-10.752-6.144-10.752-13.824v-0.512c0-7.68 4.608-13.824 10.752-13.824h81.92c6.656 0 12.288-6.144 12.288-13.824v-0.512c0-7.68-5.632-13.824-12.288-13.824h-191.488c-6.656 0-12.288 6.144-12.288 13.824v0.512c0 7.68 5.632 13.824 12.288 13.824h29.184c6.144 0 10.752 6.144 10.752 13.824v0.512c0 7.68-4.608 13.824-10.752 13.824H665.6c-7.68 0-14.336 6.656-14.336 14.336s6.656 14.336 14.336 14.336h95.744c7.68 0 13.824 6.144 13.824 13.824v0.512c0 7.68-6.144 13.824-13.824 13.824h-33.792c-7.68 0-13.824 6.144-13.824 13.824v0.512c0 7.68 6.144 13.824 13.824 13.824h215.552c7.68 0 13.824-6.144 13.824-13.824v-0.512c0-7.68-6.144-13.824-13.824-13.824H865.28c-7.68 0-13.824-6.144-13.824-13.824v-0.512c0-7.68 6.144-13.824 13.824-13.824h143.872c7.68 0 14.336-6.656 14.336-14.336s-6.144-14.336-13.824-14.336z" fill="#E6E6E6" p-id="19390"></path><path d="M809.984 311.296C834.048 173.568 742.4 41.984 604.16 17.408 466.432-6.656 334.848 85.504 310.272 223.232 287.232 353.28 368.128 477.696 493.056 512c1.024 10.752 8.704 20.48 19.968 22.016 11.264 2.048 22.016-4.096 26.624-13.824 129.024 10.24 247.296-78.848 270.336-208.896z" fill="#FFD454" p-id="19391" data-spm-anchor-id="a313x.7781069.0.i17" class=""></path><path d="M627.712 146.432c-16.896-15.36-37.888-22.528-62.976-22.528-25.6 0-47.616 8.192-66.048 24.064-18.432 16.384-28.672 38.4-31.232 66.56l43.52 7.68c5.12-37.888 20.992-56.832 48.64-56.832 11.776 0 21.504 3.584 28.672 10.752 7.168 7.168 11.264 16.896 11.264 29.184 0 16.384-9.216 31.744-28.16 46.08-12.288 9.728-20.48 16.896-24.064 22.016-3.584 5.12-5.632 12.288-5.632 21.504v27.136h38.912c0-12.288 1.024-19.968 2.56-24.064 1.536-3.584 4.608-7.168 10.24-11.264 18.944-13.824 31.232-23.552 37.376-29.184 5.632-5.632 11.264-13.312 15.872-23.552 4.608-10.24 6.656-20.48 6.656-31.744-0.512-22.016-8.704-40.96-25.6-55.808z" fill="#FFFFFF" p-id="19392"></path><path d="M564.736 375.296m-24.576 0a24.576 24.576 0 1 0 49.152 0 24.576 24.576 0 1 0-49.152 0Z" fill="#FFFFFF" p-id="19393"></path><path d="M359.424 969.216a207.872 28.16 0 1 0 415.744 0 207.872 28.16 0 1 0-415.744 0Z" fill="#E6E6E6" p-id="19394" data-spm-anchor-id="a313x.7781069.0.i15" class=""></path><path d="M441.344 996.864a35.328 13.312 0 1 0 70.656 0 35.328 13.312 0 1 0-70.656 0Z" fill="#E6E6E6" p-id="19395"></path><path d="M282.112 982.528a35.328 13.312 0 1 0 70.656 0 35.328 13.312 0 1 0-70.656 0Z" fill="#E6E6E6" p-id="19396"></path><path d="M750.592 984.064a35.328 13.312 0 1 0 70.656 0 35.328 13.312 0 1 0-70.656 0Z" fill="#E6E6E6" p-id="19397"></path><path d="M361.472 843.776c53.76 53.248 126.464 86.016 205.824 86.016 79.36 0 151.552-32.768 205.824-86.016-53.76 34.304-126.464 55.296-205.824 55.296-79.36-0.512-151.552-20.992-205.824-55.296z" fill="#1296db" p-id="19398" data-spm-anchor-id="a313x.7781069.0.i12" class=""></path><path d="M680.448 779.264c-16.896 4.096-28.16 19.456-28.16 36.864v102.4c0 17.408 11.264 8.192 28.16 12.288 24.064 5.632 45.568-12.8 45.568-35.84v-79.872c0-23.04-21.504-41.472-45.568-35.84z m-14.336 32.256c0-4.608 3.584-8.192 8.192-8.192 4.608 0 8.192 3.584 8.192 8.192 0 4.608-3.584 8.192-8.192 8.192-4.096 0-8.192-3.584-8.192-8.192z m23.04 23.04c-6.656 0-13.312 1.536-19.968 4.608 5.12-7.168 12.288-11.776 19.968-11.776s14.336 4.608 19.968 11.776c-6.656-2.56-13.312-4.608-19.968-4.608z m14.336-14.848c-4.608 0-8.192-3.584-8.192-8.192 0-4.608 3.584-8.192 8.192-8.192s8.192 3.584 8.192 8.192c0 4.608-3.584 8.192-8.192 8.192zM595.456 833.536c-18.432 2.56-31.744 19.968-31.232 38.912v37.888c-0.512 18.944 12.8 36.352 31.232 38.912 22.528 3.584 42.496-14.336 42.496-36.352v-43.008c0-22.016-19.968-39.936-42.496-36.352z m-17.408 32.256c0-4.608 3.584-8.192 8.192-8.192 4.608 0 8.192 3.584 8.192 8.192 0 4.608-3.584 8.192-8.192 8.192-4.608 0-8.192-3.584-8.192-8.192z m23.04 23.552c-6.656 0-13.312 1.536-19.968 4.608 5.12-7.168 12.288-11.776 19.968-11.776s14.336 4.608 19.968 11.776c-6.656-3.072-13.312-4.608-19.968-4.608z m14.336-15.36c-4.608 0-8.192-3.584-8.192-8.192 0-4.608 3.584-8.192 8.192-8.192 4.608 0 8.192 3.584 8.192 8.192 0 4.608-3.584 8.192-8.192 8.192zM507.392 826.368c-18.432 2.56-31.232 19.456-31.232 37.888v44.544c0 18.432 12.8 34.816 31.232 37.888 22.528 3.584 42.496-14.336 42.496-36.352v-47.104c0-22.528-19.968-40.448-42.496-36.864z m-17.408 32.768c0-4.608 3.584-8.192 8.192-8.192 4.608 0 8.192 3.584 8.192 8.192 0 4.608-3.584 8.192-8.192 8.192-4.608 0-8.192-4.096-8.192-8.192z m23.04 23.04c-6.656 0-13.312 1.536-19.968 4.608 5.12-7.168 12.288-11.776 19.968-11.776s14.336 4.608 19.968 11.776c-6.656-3.072-13.312-4.608-19.968-4.608z m14.336-14.848c-4.608 0-8.192-3.584-8.192-8.192 0-4.608 3.584-8.192 8.192-8.192s8.192 3.584 8.192 8.192c0 4.096-3.584 8.192-8.192 8.192z" fill="#41DEFD" p-id="19399"></path><path d="M567.296 927.744c-80.384 0-153.6-33.792-207.872-88.064 35.84 86.016 115.2 145.92 207.872 145.92s172.032-59.904 207.872-145.92c-54.272 54.272-127.488 88.064-207.872 88.064z" fill="#6ebdff" p-id="19400" data-spm-anchor-id="a313x.7781069.0.i8" class=""></path><path d="M520.704 662.016l-12.8-19.968-23.552-1.024 14.848-17.92-6.144-23.04 22.016 8.704 19.456-12.8-1.536 23.552 18.432 14.336-22.528 6.144zM532.48 819.712l-7.68-18.944-19.456-4.096 15.36-12.8-2.048-19.968 16.896 10.24 18.432-7.68-5.12 19.456 13.824 14.848-20.48 1.536zM584.704 704.512l-11.776 12.288 3.584 16.896-15.36-7.168-14.848 8.704 2.048-16.896-12.8-11.264 16.896-3.584 6.656-15.872 8.192 15.36zM795.648 829.44l-10.24 12.288 4.608 15.36-14.848-5.632-12.8 9.216 0.512-15.872-12.288-9.728 15.36-4.096 5.12-14.848 8.704 13.312z" fill="#FFD454" p-id="19401"></path><path d="M773.12 980.48l-159.744-190.464c-1.024-1.024-0.512-2.56 0.512-3.584l1.024-1.024c1.024-1.024 2.56-0.512 3.584 0.512l159.744 190.464c1.024 1.024 0.512 2.56-0.512 3.584l-1.024 1.024c-1.024 0.512-3.072 0.512-3.584-0.512z" fill="#1296db" p-id="19402" data-spm-anchor-id="a313x.7781069.0.i16" class=""></path></svg>
