<svg t="1572255070294" class="icon" viewBox="0 0 1024 1024" version="1.1" xmlns="http://www.w3.org/2000/svg" p-id="22661" width="200" height="200"><path d="M738.460185 854.903447c22.705905-14.191191 19.867667-59.603001 39.735334-76.63243 19.867667-17.029429 65.279478-5.676476 82.308907-25.544143 17.029429-19.867667 0-62.44124 11.352953-85.147145 11.352953-22.705905 59.603001-28.382382 68.117716-53.926525 8.514714-22.705905-22.705905-59.603001-17.029429-85.147145 5.676476-25.544143 45.411811-48.250049 45.411811-73.794192 0-25.544143-39.735334-48.250049-45.411811-73.794192-5.676476-25.544143 25.544143-59.603001 17.029429-85.147145-8.514714-25.544143-53.926525-31.22062-68.117716-53.926525-11.352953-22.705905 5.676476-65.279478-11.352953-85.147145-17.029429-19.867667-62.44124-11.352953-82.308907-25.544143-19.867667-17.029429-17.029429-62.44124-39.735334-76.63243-22.705905-14.191191-62.44124 11.352953-85.147145 2.838238-22.705905-8.514714-36.897096-53.926525-62.44124-56.764763-25.544143-5.676476-53.926525 31.22062-79.470669 31.22062S457.474607-2.244479 431.930463 0.593759c-25.544143 5.676476-39.735334 48.250049-62.44124 56.764763-22.705905 8.514714-62.44124-17.029429-85.147145-2.838238C261.636173 68.711475 264.474412 116.961524 244.606744 131.152715 224.739077 148.182144 179.327267 139.667429 162.297838 159.535097c-17.029429 19.867667 0 62.44124-11.352953 85.147145-11.352953 22.705905-59.603001 28.382382-68.117716 53.926525-8.514714 22.705905 22.705905 59.603001 17.029429 85.147145C97.01836 406.461817 57.283026 429.167722 57.283026 454.711866c0 25.544143 39.735334 48.250049 45.411811 73.794192 5.676476 25.544143-25.544143 59.603001-17.029429 85.147145 8.514714 25.544143 53.926525 31.22062 68.117716 53.926525 11.352953 22.705905-5.676476 65.279478 11.352953 85.147145 17.029429 19.867667 62.44124 11.352953 82.308907 25.544143 19.867667 17.029429 17.029429 62.44124 39.735334 76.63243 22.705905 14.191191 62.44124-11.352953 85.147145-2.838238 22.705905 8.514714 36.897096 53.926525 62.44124 56.764763 25.544143 5.676476 53.926525-31.22062 79.470669-31.22062s53.926525 36.897096 79.470669 31.22062c25.544143-5.676476 39.735334-48.250049 62.44124-56.764763C676.018945 840.712256 715.75428 866.256399 738.460185 854.903447zM511.401132 823.682827C307.047984 823.682827 142.43017 659.065013 142.43017 454.711866S307.047984 85.740904 511.401132 85.740904s368.970961 164.617813 368.970961 368.970961S715.75428 823.682827 511.401132 823.682827z" p-id="22662"></path><path d="M255.959697 903.153495c-25.544143-14.191191-22.705905-68.117716-45.411811-85.147145-22.705905-19.867667-73.794192-8.514714-90.823621-31.22062 0 0-2.838238-2.838238-2.838238-2.838238l-48.250049 48.250049c-22.705905 22.705905-14.191191 45.411811 14.191191 53.926525l31.22062 8.514714c31.22062 8.514714 62.44124 39.735334 68.117716 68.117716L193.518457 993.977117c8.514714 31.22062 31.22062 36.897096 53.926525 14.191191l107.85305-107.85305c0 0-2.838238 0-2.838238-2.838238C324.077413 888.962305 281.50384 917.344686 255.959697 903.153495z" p-id="22663"></path><path d="M905.916236 783.947493c0 0-2.838238 2.838238-2.838238 2.838238-17.029429 22.705905-68.117716 11.352953-90.823621 31.22062-22.705905 19.867667-19.867667 70.955954-45.411811 85.147145-25.544143 14.191191-68.117716-14.191191-96.500098-2.838238 0 0-2.838238 0-2.838238 2.838238l107.85305 107.85305c22.705905 22.705905 45.411811 14.191191 53.926525-14.191191l8.514714-31.22062c8.514714-31.22062 39.735334-62.44124 68.117716-68.117716l31.22062-8.514714c31.22062-8.514714 36.897096-31.22062 14.191191-53.926525L905.916236 783.947493z" p-id="22664"></path><path d="M727.107232 258.873432c-11.352953 0-28.382382 0-42.573572 0-31.22062 0-62.44124 0-90.823621-2.838238 0 2.838238-2.838238 5.676476-2.838238 8.514714 0 2.838238 0 5.676476 0 5.676476 0 8.514714 5.676476 14.191191 14.191191 14.191191 17.029429 2.838238 28.382382 5.676476 34.058858 11.352953 5.676476 5.676476 5.676476 11.352953 5.676476 17.029429 0 11.352953-8.514714 39.735334-25.544143 82.308907s-42.573572 107.85305-76.63243 190.161957L454.636368 383.755912c-8.514714-22.705905-17.029429-39.735334-19.867667-51.088287-5.676476-14.191191-5.676476-22.705905-5.676476-25.544143 0-5.676476 2.838238-8.514714 8.514714-14.191191 5.676476-2.838238 17.029429-5.676476 34.058858-8.514714 8.514714 0 14.191191-5.676476 14.191191-14.191191 0-5.676476 0-8.514714-2.838238-14.191191-19.867667 0-36.897096 2.838238-53.926525 2.838238s-36.897096 0-62.44124 0c-19.867667 0-39.735334 0-53.926525 0C292.856793 258.873432 275.827364 256.035194 258.797935 256.035194 255.959697 261.71167 255.959697 267.388147 255.959697 270.226385 255.959697 278.741099 261.636173 284.417576 270.150888 284.417576c11.352953 0 17.029429 2.838238 25.544143 5.676476s11.352953 5.676476 17.029429 8.514714c5.676476 2.838238 8.514714 8.514714 11.352953 14.191191 2.838238 5.676476 8.514714 14.191191 11.352953 25.544143L483.01875 667.579728c8.514714 17.029429 11.352953 28.382382 17.029429 34.058858 2.838238 5.676476 8.514714 8.514714 17.029429 8.514714 5.676476 0 11.352953 0 17.029429-2.838238l156.103099-371.809199c5.676476-14.191191 14.191191-22.705905 28.382382-31.22062 11.352953-5.676476 25.544143-14.191191 36.897096-19.867667 5.676476-2.838238 8.514714-5.676476 11.352953-5.676476S766.842566 273.064623 766.842566 270.226385c0-2.838238 0-8.514714-2.838238-14.191191C752.651376 256.035194 741.298423 258.873432 727.107232 258.873432z" p-id="22665"></path></svg>
