<svg t="1572598410393" class="icon" viewBox="0 0 1024 1024" version="1.1" xmlns="http://www.w3.org/2000/svg" p-id="2429" width="200" height="200"><path d="M512 466.55c-25.65 0-45.45 19.8-45.45 45.45 0 25.65 19.8 45.45 45.45 45.45 24.3 0 45.45-19.8 45.45-45.45 0-25.65-21.6-45.45-45.45-45.45z m414.45-129.6c-22.95-53.55-55.35-101.7-96.3-143.1s-89.55-73.8-143.1-96.3C631.7 74.15 572.75 62 512 62S392.3 74.15 336.95 97.55C283.4 120.5 235.25 152.9 193.85 193.85c-41.4 41.4-73.8 89.55-96.3 143.1C74.15 392.3 62 451.25 62 512s11.7 119.7 35.55 175.05c22.95 53.55 55.35 101.7 96.3 143.1 41.4 41.4 89.55 73.8 143.1 96.3 55.35 23.4 114.3 35.55 175.05 35.55s119.7-11.7 175.05-35.55c53.55-22.95 101.7-55.35 143.1-96.3 41.4-41.4 73.8-89.55 96.3-143.1 23.4-55.35 35.55-114.3 35.55-175.05s-12.15-119.7-35.55-175.05zM702.35 350l-112.5 231.3c-3.15 4.5-6.3 9-10.8 10.8l-228.6 109.8c-3.15 1.35-6.3 3.15-9 3.15-6.3 0-12.15-1.35-16.65-6.3-7.65-5.85-9-16.65-4.5-25.65L431 440c1.35-4.5 6.3-9 10.8-10.8l229.95-108c9-4.5 19.8-3.15 26.1 4.5 7.2 7.65 9 18.45 4.5 24.3z" p-id="2430"></path></svg>
