<svg t="1571366146272" class="icon" viewBox="0 0 1024 1024" version="1.1" xmlns="http://www.w3.org/2000/svg" p-id="5939" width="200" height="200"><path d="M819.2 0H204.8C92.16 0 0 92.16 0 204.8v614.4c0 112.64 92.16 204.8 204.8 204.8h614.4c112.64 0 204.8-92.16 204.8-204.8V204.8c0-112.64-92.16-204.8-204.8-204.8z m-70.144 513.536c4.608 48.64 11.776 104.448-15.36 167.424-20.992 49.664-82.944 118.272-168.96 136.704-34.816 8.192-89.088 3.072-121.856-6.656-76.8-24.576-140.288-84.48-173.568-176.128C220.16 503.808 321.536 400.384 321.536 400.384s-2.56 26.624 9.728 55.808 36.864 50.688 36.864 50.688-23.552-61.44 33.792-163.84c64.512-115.2 206.336-139.776 206.336-139.776s-35.84 55.296-19.968 112.128c12.288 42.496 33.28 62.976 55.808 119.808 22.528 58.88 18.944 90.624 18.944 90.624s6.656-36.352 22.528-60.928c35.328-53.76 82.944-67.072 82.944-67.072s-25.6 49.664-19.456 115.712z" p-id="5940"></path></svg>
