<svg t="1571898036914" class="icon" viewBox="0 0 1024 1024" version="1.1" xmlns="http://www.w3.org/2000/svg" p-id="2946" width="200" height="200"><path d="M355.328 698.88H195.584c-11.264 0-19.968 11.264-19.968 24.576 0 13.824 8.704 24.576 19.968 24.576h159.232c10.752 0 19.968-11.264 19.968-24.576 0-13.312-8.704-24.576-19.456-24.576zM265.216 430.08l106.496-109.056L478.72 430.08c7.168 7.68 19.456 7.68 27.136 0.512l0.512-0.512c7.68-7.68 7.68-20.48 0-28.16l-6.656-6.656 32.256-33.28L599.04 430.08c7.168 7.68 19.456 7.68 27.136 0.512 0 0 0.512 0 0.512-0.512 7.68-7.68 7.68-20.48 0-28.16l-78.336-79.872c-0.512-1.024-1.024-2.048-2.048-3.072-4.096-4.096-9.216-5.632-14.336-5.632-5.12 0-10.24 1.536-14.336 5.632-1.024 1.024-1.024 2.048-2.048 3.072l-44.032 44.544-83.456-85.504c-0.512-1.024-1.024-2.048-2.048-3.072-4.096-4.096-9.216-6.144-14.336-5.632-5.12 0-10.24 1.536-14.336 5.632-1.024 1.024-1.024 2.048-2.048 3.072L238.08 401.92c-7.68 7.68-7.68 20.48 0 28.16 7.168 7.68 19.968 7.68 27.136 0z m89.6 119.296H195.584c-10.752 0-19.968 11.264-19.968 25.088s8.704 25.088 19.968 25.088h159.232c11.264 0 19.968-11.264 19.968-25.088s-8.704-25.088-19.968-25.088z m274.432 149.504H469.504c-11.264 0-19.968 11.264-19.968 25.088s8.704 25.088 19.968 25.088h159.232c11.264 0 19.968-11.264 19.968-25.088 0.512-13.824-8.704-25.088-19.456-25.088z" p-id="2947"></path><path d="M773.632 350.208V100.864c0-11.776-13.312-25.088-25.088-25.088H72.192c-11.776 0-20.992 9.728-20.992 21.504v829.44c0 11.776 9.216 21.504 20.992 21.504h775.168v-1.536c5.632 0.512 10.752 1.536 16.384 1.536 60.416 0 109.056-49.664 109.056-110.592V350.208h-199.168z m-49.664 547.84H121.856c-11.264 0-20.48-9.216-20.48-20.992V146.944c0-11.776 9.216-20.992 20.48-20.992h577.024c11.264 0 25.088 13.312 25.088 25.088v672.768c-3.584 30.72 5.632 53.248 25.088 74.752h-25.088z m199.168-74.752c0 40.448-34.816 74.752-74.752 74.752-41.472 0-74.752-32.768-74.752-74.752V399.872h149.504v423.424z" p-id="2948"></path><path d="M629.248 549.376H469.504c-11.264 0-19.968 11.264-19.968 25.088s8.704 25.088 19.968 25.088h159.232c11.264 0 19.968-11.264 19.968-25.088 0.512-13.824-8.704-25.088-19.456-25.088zM451.584 259.072c0 16.896 13.312 30.208 30.208 30.208 16.896 0 30.208-13.312 30.208-30.208 0-16.896-13.312-30.208-30.208-30.208-16.896 0-30.208 13.312-30.208 30.208z" p-id="2949"></path></svg>
