<svg t="1572589181216" class="icon" viewBox="0 0 1024 1024" version="1.1" xmlns="http://www.w3.org/2000/svg" p-id="3547" width="200" height="200"><path d="M996.864 397.824l-269.312-264.192c-32.256-32.256-91.648-32.256-123.904 0l-91.648 97.28-91.648-91.648c-21.504-15.872-43.008-27.136-64.512-27.136S307.2 122.88 290.816 139.264L27.136 397.824C10.752 413.696 0 435.712 0 457.216c0 21.504 10.752 43.008 27.136 59.392l360.96 350.208s5.12 0 5.12 5.12l5.12 5.12c70.144 48.64 156.16 53.76 237.056-10.752 5.12 0 5.12-5.12 10.752-5.12l231.936-226.304 118.272-113.152c15.872-15.872 27.136-37.888 27.136-64.512 0.512-27.136-10.24-43.52-26.624-59.392z m-393.216 458.24c-10.752 10.752-32.256 10.752-48.64 0l-37.888-37.888c-10.752-5.12-10.752-21.504-10.752-32.256 5.12-10.752 10.752-21.504 21.504-21.504 10.752-5.12 21.504 0 32.256 10.752l37.888 37.888c21.504 10.24 21.504 32.256 5.632 43.008z m86.016-80.896c-10.752 10.752-32.256 10.752-48.64 0l-37.888-37.888c-10.752-5.12-10.752-21.504-10.752-32.256 5.12-10.752 10.752-21.504 21.504-21.504 10.752-5.12 21.504 0 32.256 10.752l37.888 37.888c22.016 10.752 22.016 32.256 5.632 43.008z m80.896-80.896c-10.752 10.752-32.256 10.752-48.64 0l-37.888-37.888c-10.752-10.752-10.752-32.256 0-43.008s32.256-10.752 43.008 0l37.888 37.888c22.016 10.752 22.016 32.256 5.632 43.008z m183.296-221.184l-97.28 91.648L619.52 333.312c-5.12 0-10.752-5.12-21.504-5.12s-15.872 5.12-21.504 10.752l-53.76 53.76c-10.752 10.752-27.136 15.872-43.008 15.872s-32.256-5.12-43.008-15.872l97.28-91.648 118.272-113.152c10.752-10.752 21.504-10.752 32.256 0l269.312 264.192c5.632-0.512 5.632 15.872 0 20.992z" p-id="3548"></path></svg>
