<svg t="1577087316959" class="icon" viewBox="0 0 1024 1024" version="1.1" xmlns="http://www.w3.org/2000/svg" p-id="1334" width="200" height="200"><path d="M15.872 179.2H71.68v-13.312H2.56v69.12h13.312V179.2z m0 665.6H71.68v13.312H2.56v-69.12h13.312V844.8zM1003.008 179.2H947.2v-13.312h69.12v69.12h-13.312V179.2z m0 665.6H947.2v13.312h69.12v-69.12h-13.312V844.8z" p-id="1335"></path><path d="M951.808 217.088H72.192c-6.144 0-10.752 4.608-10.752 9.728v570.368c0 5.632 4.608 9.728 10.752 9.728h879.616c6.144 0 10.752-4.608 10.752-9.728V226.816c-0.512-5.632-4.608-9.728-10.752-9.728z m0 567.808c0 6.656-5.12 11.264-11.776 11.264H83.968c-6.656 0-11.776-5.12-11.776-10.752v-547.84c0-6.144 5.12-10.752 11.776-10.752h856.064c6.656 0 11.776 5.12 11.776 10.752v547.328z" p-id="1336"></path><path d="M154.624 613.888h72.704v20.48H154.624v-20.48z m103.936 0h103.424v20.48H258.56v-20.48z m-103.936 49.152h72.704v20.48H154.624v-20.48z m103.936 0h553.984v20.48H258.56v-20.48z m476.16 105.472h155.136v9.728h-155.136v-9.728zM563.2 270.336c-25.088-28.16-68.096-30.72-96.256-6.144l-0.512 0.512c-27.648 24.576-30.208 67.584-5.632 95.232l-11.264 20.48s8.192-7.168 15.872-3.072c5.632 3.584 9.728 8.704 11.776 15.36l5.632-12.8v6.656H537.6v-6.656l8.192 12.288c2.048-6.144 6.144-11.776 11.776-15.36 5.12-2.048 10.752-1.536 15.36 1.536l-10.24-18.944c23.04-24.576 23.04-63.488 0.512-89.088z m-31.232 34.816l1.536 5.12h5.12l-3.584 3.072 2.56 4.608-4.096-2.56-4.096 2.56v-5.12l-3.584-3.072h5.12l1.024-4.608z m-24.064-22.528l4.096-10.24 4.608 11.264h11.264l-8.704 7.168 3.072 11.264-9.728-6.144-9.216 5.12 2.56-11.264-8.704-7.168h10.752z m16.896 61.952h-24.576l2.56-7.168h19.968l2.048 7.168z m-29.184-34.304l1.536-5.12 1.536 5.12h5.12l-3.584 3.072 2.56 4.608-4.096-2.56-4.096 2.56v-5.12l-3.584-3.072h4.608z m-22.016-5.12v-5.12l-4.096-3.072h5.12l1.536-5.12 1.536 5.12h5.12l-2.56 3.584 2.56 5.12-5.632-3.072-3.584 2.56z m4.608 50.688l7.168-11.264h55.808l7.168 11.264H478.208z m72.704-57.856l2.56 5.12-4.096-2.56-4.096 2.56v-5.12l-3.584-3.072h5.12l1.536-5.12 1.536 5.12h5.12l-4.096 3.072zM349.696 498.688h47.616v19.456h-47.616v-19.456z m39.424 13.824v-6.656h-31.744v6.656H389.12z m16.896 11.264v27.136h-8.192v-3.584h-47.616v3.584h-8.704v-27.136h64.512z m-56.32 15.872h47.616v-8.704h-47.616v8.704z m-16.384-68.096H353.28V465.92h8.704v5.632H384V465.92h8.704v5.632h19.968v7.68h-19.968v4.608H384v-4.608h-22.016v4.608H353.28v-4.608h-19.968v-7.68zM411.136 486.4v17.92h-8.192v-10.752H343.04v11.264h-8.192V486.4h76.288z m39.936-19.968h8.704v72.704h10.752V466.432h8.704v72.704h27.136v8.704h-81.92v-8.704h27.136V466.432h-0.512z m45.568 16.896l7.68 2.048c-3.584 15.872-7.68 29.696-13.312 41.472l-7.68-2.56c4.608-10.24 9.216-24.576 13.312-40.96z m-63.488 0c4.608 12.288 8.704 26.624 12.288 42.496l-7.68 2.048c-3.072-14.336-7.168-28.672-11.776-41.984l7.168-2.56z m157.696 66.56c-4.608 0-7.68-2.56-9.728-7.68s-3.072-15.36-3.072-31.744v-21.504h-10.752v9.216c0 5.12-0.512 9.216-1.024 13.824 4.096 3.072 7.68 6.144 11.776 9.216l-5.12 7.68c-3.072-2.56-5.632-5.12-8.192-7.168-3.072 12.288-8.704 21.504-16.896 29.184l-6.656-5.632c8.192-6.656 13.312-16.384 15.872-29.184-3.584-2.56-7.168-4.608-10.752-6.656l4.608-7.168c2.56 1.024 5.12 2.56 7.168 4.096 0.512-2.56 0.512-5.632 0.512-8.192v-9.216H547.84v-8.192h10.752v-14.336h8.704v14.336h19.456v30.208c0 12.288 0.512 19.968 1.024 23.552 0.512 3.584 1.024 5.12 2.56 5.12 0.512 0 1.536-1.536 2.048-4.608 0.512-2.56 1.024-5.632 1.024-9.216l7.168 3.584c-1.024 8.704-2.56 14.336-4.096 16.896-2.048 2.048-3.584 3.584-5.632 3.584z m-64.512-0.512h-8.704l-2.048-8.192c2.56 0.512 5.12 0.512 7.68 0.512 2.048 0 3.584-1.024 3.584-3.072v-19.456c-3.584 1.024-7.168 2.56-10.24 3.584l-2.048-8.192c4.096-1.024 8.192-2.048 12.8-3.584V491.52h-11.776v-8.192h10.752v-16.384h8.704v16.384h7.68V491.52h-7.68v15.872c3.072-1.024 5.632-2.56 8.192-4.096v8.704c-2.56 1.024-5.632 2.56-8.192 3.584v25.6c0.512 5.12-3.072 8.192-8.704 8.192z m84.48-80.384h28.16v56.32h-28.16v-56.32z m20.48 48.64v-16.384H619.52v16.384h11.776z m-11.776-24.576h11.264v-16.384H619.52v16.384z m25.6 6.656h39.936v25.6H645.12v-25.6z m31.744 18.432v-10.24h-22.528v10.24h22.528z m-20.992-40.96h-11.776v-8.192h43.52c-0.512 11.264-1.024 18.432-2.56 21.504-1.536 4.096-4.608 6.144-9.728 6.144-2.048 0-4.096 0-6.656-0.512l-2.56-7.68c3.072 0.512 6.144 0.512 8.192 0.512 2.048 0 3.072-1.536 3.584-3.584 0.512-1.024 1.024-4.096 1.024-8.704h-13.824c-1.536 9.728-7.68 16.384-18.944 20.992l-4.608-7.168c8.192-2.56 12.8-7.168 14.336-13.312z m-39.936 51.2l7.68 2.048c-2.048 7.68-4.096 14.336-7.168 20.48l-7.68-3.072c2.56-4.608 5.12-11.264 7.168-19.456z m24.064 2.048c1.536 5.632 3.072 11.776 4.608 18.432l-8.192 2.048c-1.024-7.168-2.56-13.312-4.096-18.432l7.68-2.048z m19.456-1.024c2.56 5.632 4.608 12.288 6.144 18.944l-8.192 2.048c-1.536-7.168-3.584-13.824-6.144-19.456l8.192-1.536z m19.456-2.048c5.12 7.168 8.704 12.8 11.776 18.432l-7.168 4.608c-3.072-5.632-6.656-11.776-11.264-18.944l6.656-4.096z" p-id="1337"></path><path d="M814.592 785.92c-37.376 0-67.072-30.208-67.072-67.072 0-37.376 30.208-67.072 67.072-67.072s67.072 30.208 67.072 67.072c0 36.864-30.72 67.072-67.072 67.072z m0-10.24c31.744 0 57.344-25.6 57.344-56.832 0-31.744-26.112-56.832-57.344-56.832s-57.344 25.6-57.344 56.832c-0.512 31.232 25.088 56.832 57.344 56.832z" p-id="1338"></path><path d="M812.544 735.744l-14.848 8.704 3.072-18.432-12.288-13.312 16.896-2.56 7.168-16.896 7.68 16.896 16.896 2.56-12.288 13.312 3.072 18.432-15.36-8.704z" p-id="1339"></path></svg>
