<svg t="1572243417558" class="icon" viewBox="0 0 1024 1024" version="1.1" xmlns="http://www.w3.org/2000/svg" p-id="2339" width="200" height="200"><path d="M986.353156 533.198163c-15.859096-18.417015-12.27801-26.602355 1.023168-42.973035 69.063806-84.922902 31.718192-201.563997-74.691228-229.701103-26.602355-7.162172-37.857197-14.835929-28.64869-37.345614 2.557919-107.432587-100.781999-179.565896-201.563997-142.220283-23.532852 8.696924-32.229776 7.162172-46.042538-13.812761-61.39005-89.527156-188.774404-89.527156-249.141286 0-14.324345 21.486517-23.532852 21.998101-46.554121 13.812761-103.851501-36.322446-208.214586 37.345614-201.563998 143.24345 1.534751 26.602355-6.650589 30.695025-29.671857 36.83403C4.112356 289.172715-34.768009 408.371728 35.830549 490.736712c15.347512 17.905431 13.812761 26.090771-0.511584 43.484619-70.086974 85.94607-30.183441 202.587165 79.295481 230.724271 20.46335 5.115837 26.602355 9.208507 25.067604 31.718193-6.650589 112.036841 96.177745 184.17015 205.145084 144.778201 20.46335-7.673756 27.625522-5.627421 39.391949 12.27801 63.436385 94.13141 190.309155 93.619826 253.74554-1.023168 12.789594-18.928599 19.951766-18.417015 39.903532-11.254842 108.455755 40.415116 214.353591-35.810862 204.6335-147.33612-1.534751-20.46335 3.581086-24.044436 22.509685-28.64869 113.060009-27.625522 155.009876-146.312952 81.341816-232.259023zM214.373278 718.391481l-58.832132-168.822638c-5.115837-14.835929 0-25.067604 15.859097-30.695025 8.696924-1.023167 16.882264 0 23.532852 4.09267l145.289785 92.085075 1.023168-0.511583-38.880365-112.548425c-5.115837-14.835929 0-25.067604 15.859096-30.695025 15.347512-4.09267 26.090771 1.023167 31.718192 15.347512L409.286686 655.46668c4.09267 14.324345-1.534751 23.532852-16.882263 28.64869-8.18534 2.557919-15.859096 2.046335-23.021269-1.534752l-144.778201-91.061907-1.023168 0.511584 38.368781 111.013673c4.09267 14.324345-1.534751 23.532852-16.882263 28.64869s-26.090771 0.511584-30.695025-13.301177zM436.400625 645.235005L379.614829 482.039788c-5.627421-16.37068-0.511584-27.113939 14.835929-33.252943l80.318648-26.090772c13.812761-3.581086 23.532852 0.511584 29.671858 12.27801 3.069502 14.324345-2.046335 24.044436-15.347513 28.137107L432.307955 481.528205l14.835929 42.973035 52.693126-16.882264c14.835929-3.069502 25.067604 1.534751 31.206609 13.301177 3.069502 13.812761-2.557919 23.021269-16.882264 28.64869l-52.693126 16.882264 15.859096 45.01937 58.832131-18.928599c14.324345-3.581086 24.55602 0.511584 29.671858 12.27801 3.069502 14.324345-2.046335 24.044436-15.347513 28.137107l-82.876567 26.602355c-15.347512 4.09267-25.579187-0.511584-31.206609-14.324345z m179.054313-56.274213l-97.712497-148.359287c-2.557919-2.557919-4.604254-5.627421-5.115837-10.231675-3.069502-11.766426 2.046335-20.974934 15.859096-27.113939 13.301177-4.09267 24.55602 0 34.276111 13.301177l70.086974 116.641095 1.023168-0.511583-4.09267-143.24345c0.511584-12.27801 6.650589-20.46335 18.928598-25.579188 11.766426-3.069502 22.509685 0 31.206609 9.208508l86.457654 116.129511 1.023167-0.511584-15.347512-133.523359c-3.069502-14.324345 2.557919-24.55602 17.393847-30.183441 13.812761-2.557919 23.532852 1.534751 29.671858 12.27801 1.534751 4.09267 2.046335 7.673756 2.557918 10.743259l16.37068 174.961642c-1.023167 15.859096-9.208507 26.090771-24.044436 31.206609-16.882264 5.627421-29.671857 2.557919-39.391949-9.208507l-77.76073-102.31675 2.046335 126.87277c-1.534751 14.835929-9.720091 25.067604-24.55602 29.671857-17.905431 6.139005-31.206609 2.557919-38.880364-10.231675z" p-id="2340"></path></svg>
