<svg t="1571366175112" class="icon" viewBox="0 0 1024 1024" version="1.1" xmlns="http://www.w3.org/2000/svg" p-id="6053" width="200" height="200"><path d="M894.976 38.912H129.024C58.368 38.912 0 96.768 0 168.448v687.616c0 71.168 57.344 129.024 129.024 129.024h765.952c71.168 0 129.024-57.344 129.024-129.024V167.424c0-70.656-57.344-128.512-129.024-128.512zM191.488 248.32h61.44c17.408 0 32.256 14.336 32.256 32.256S270.336 312.32 252.928 312.32h-61.44c-17.408 0-32.256-14.336-32.256-32.256 1.024-17.92 14.848-31.744 32.256-31.744z m288.768 458.752c0 14.336-6.144 27.648-15.872 37.376-9.728 9.728-23.04 15.872-37.376 15.872H212.992c-14.336 0-27.648-6.144-37.376-15.872-9.728-9.728-15.872-23.04-15.872-37.376V492.544c0-14.336 6.144-27.136 15.36-36.864 9.728-9.728 22.528-15.36 36.864-15.36h215.04c14.336 0 27.648 6.144 37.376 15.872 9.728 9.728 15.872 23.04 15.872 37.376v213.504z m351.744-11.776H640c-17.408 0-32.256-14.336-32.256-32.256 0-17.408 14.336-32.256 32.256-32.256h192c17.408 0 32.256 14.336 32.256 32.256-0.512 17.92-14.336 32.256-32.256 32.256z m0-192.512H640c-17.408 0-32.256-14.336-32.256-32.256 0-17.408 14.336-32.256 32.256-32.256h192c17.408 0 32.256 14.336 32.256 32.256-0.512 17.92-14.336 32.256-32.256 32.256z m0-190.976H368.128c-17.408 0-32.256-14.336-32.256-32.256 0-17.408 14.336-32.256 32.256-32.256h464.384c17.408 0 32.256 14.336 32.256 32.256-1.024 18.432-14.848 32.256-32.768 32.256z" p-id="6054"></path></svg>
