<svg t="1572341299638" class="icon" viewBox="0 0 1024 1024" version="1.1" xmlns="http://www.w3.org/2000/svg" p-id="3247" width="200" height="200"><path d="M871.424 95.744h-154.112c-7.168-31.744-36.352-55.808-70.144-55.808h-76.288C561.152 15.872 538.112 0 511.488 0c-26.624 0-49.664 15.872-59.392 39.936H374.784c-33.792 0-62.976 24.064-70.144 55.808H150.528c-39.936 0-70.144 32.768-70.144 72.704v782.848c0 39.936 31.744 72.704 70.144 72.704H870.4c39.936 0 73.728-32.768 73.728-72.704V168.448c1.024-39.936-32.768-72.704-72.704-72.704z m-358.912 35.328c32.768 0 58.368 26.624 58.368 58.368 0 32.768-26.624 58.368-58.368 58.368-32.768 0-58.368-26.624-58.368-58.368s25.6-58.368 58.368-58.368z m221.696 602.112c0 14.336-12.288 26.624-26.624 26.624H317.44c-14.336 0-26.624-12.288-26.624-26.624v-24.064c0-14.336 12.288-26.624 26.624-26.624h390.144c14.336 0 26.624 12.288 26.624 26.624v24.064z m0-246.272c0 14.336-12.288 26.624-26.624 26.624H317.44c-14.336 0-26.624-12.288-26.624-26.624v-24.064c0-14.336 12.288-26.624 26.624-26.624h390.144c14.336 0 26.624 12.288 26.624 26.624v24.064z" p-id="3248"></path></svg>
