<svg t="1571902715715" class="icon" viewBox="0 0 1024 1024" version="1.1" xmlns="http://www.w3.org/2000/svg" p-id="2386" width="200" height="200"><path d="M648.192 309.248l-44.032 2.56V337.92l41.984 0.512z" fill="#FE3506" p-id="2387"></path><path d="M926.208 51.2H97.792c-25.6 0-46.592 20.992-46.592 46.592v828.416c0 25.6 20.992 46.592 46.592 46.592h828.416c25.6 0 46.592-20.992 46.592-46.592V97.792c0-25.6-20.992-46.592-46.592-46.592z m-195.584 95.744l96.768-8.192 18.944 17.92-3.584 239.104L834.56 409.6l-33.792 23.04-19.968-28.16 27.136-17.92 2.048-142.336-56.832 6.144 2.048 38.912 44.544 0.512-0.512 34.816-43.008-0.512 0.512 9.728v4.608l-18.944 92.672-34.304-6.144 18.432-91.648-0.512-10.24-18.944-0.512 0.512-34.816 16.384 0.512-6.144-123.904 17.408-17.408z m-190.976 189.952l30.208 0.512V251.392l-23.04-2.048 3.072-34.304 19.968 1.536v-19.968h-18.944v-34.816h18.944V138.24h34.304v23.552l53.248-0.512 1.536-24.576 34.816 2.048-1.536 22.016h16.384v34.816l-18.944 0.512-8.704 142.848 20.48 0.512-0.512 34.816-99.328-2.048-26.624 61.952-32.256-13.824 21.504-49.152-25.088-0.512 0.512-33.792zM698.88 414.72l-22.016 26.112-44.032-36.352 22.528-26.624 43.52 36.864z m34.304 160.768l2.56 34.816-28.672 2.048 29.696 15.36-39.424 75.264-30.72-16.384 38.912-73.728-167.936 12.288-2.56-34.816 198.144-14.848zM593.408 640l28.16-20.48 34.304 48.128-28.672 20.48-33.792-48.128z m7.168 37.376l-27.136 21.504-35.328-44.544 27.136-21.504 35.328 44.544zM297.472 316.928l-0.512-34.816 59.904-1.536 4.608-59.904-69.12-4.096 2.048-34.816 66.56 3.584-16.896-29.696 30.208-17.92 28.16 49.664 62.976 3.072-2.048 34.816-67.072-3.584-4.608 57.344 64-1.536 0.512 34.816-67.072 2.048-6.144 82.944 90.624-6.144 2.048 34.304-190.464 12.8-2.048-33.792 65.024-4.608 6.144-84.48-56.832 1.536z m-39.936-171.52l20.48 28.16L200.192 230.4l-20.48-28.16 77.824-56.832zM263.168 220.16l17.92 29.696-33.28 19.456 5.12 166.4-34.816 0.512-4.608-146.944-23.552 13.824-17.92-29.696L263.168 220.16z m2.56 651.264l-34.816 0.512-2.048-73.728-29.696 54.272-30.72-16.384 58.368-107.52v-0.512l-44.032-2.048 1.536-34.304 24.064 1.024-30.72-73.728 32.256-12.8 14.336 34.816-1.536-58.88 34.816-0.512 1.536 62.464 15.872-29.696 30.72 15.872-34.304 65.024 23.04 0.512-2.048 34.816-31.232-1.536v11.264l38.912 25.6-18.944 28.672-18.944-12.288 3.584 89.088z m195.072 11.776l-34.304-3.072 11.776-124.928-92.672 1.536 0.512 16.896 71.168-6.144 2.56 34.304-72.704 6.144 0.512 10.24 72.704 7.168-3.584 34.816-67.584-7.168 1.024 22.016-34.304 1.536-3.072-66.048-14.848 1.024-2.56-34.816 15.36-1.024-1.536-36.352 17.408-17.92 130.048-2.048 17.92 18.944-13.824 144.896z m17.92-168.448l-171.008-3.072 0.512-34.816 65.536 1.536 0.512-7.68-46.592 2.048-0.512-34.816 49.664-1.536 0.512-9.728-62.976-3.584 2.048-34.816 64 3.584 0.512-11.264 34.816 2.048-0.512 11.264 57.856 3.072-2.048 34.816-58.368-3.072-0.512 6.656 40.448-1.536 0.512 34.304-43.52 2.048-0.512 9.728 70.656 1.024-1.024 33.792z m179.2 100.352l-2.048 71.68-34.816-1.536 3.584-113.664-64.512 95.232-29.184-19.968 62.464-91.648-55.808 4.096-2.56-34.816 91.136-6.656 0.512-15.36 34.816 1.536-0.512 11.264 72.704-5.632 2.048 34.816-75.776 5.632-1.024 28.16 89.088 38.912-13.824 31.744-76.288-33.792z m113.664 72.192l-28.672-20.48 62.464-87.552-59.392 3.072-14.848-28.16 46.592-61.44-31.744-5.632-10.752-28.16 65.536-84.48 27.136 20.992-48.128 62.464 32.256 5.632 10.24 27.648-40.96 53.76 58.368-2.56 15.36 27.648-83.456 117.248z" fill="#FE3506" p-id="2388"></path><path d="M651.776 257.024l-47.616-3.072V276.48l46.08-2.56zM810.496 209.408l0.512-34.304-61.44 5.12 1.536 35.328zM655.36 196.096h-51.2v23.04l49.664 3.072z" fill="#FE3506" p-id="2389"></path></svg>
