<svg t="1572243429013" class="icon" viewBox="0 0 1024 1024" version="1.1" xmlns="http://www.w3.org/2000/svg" p-id="2450" width="200" height="200"><path d="M981.504 91.136c-15.872-6.656-34.816-11.264-54.272-12.288h-0.512c-61.44-10.752-143.872 4.608-210.944 38.4-3.072 1.536-6.144-1.024-5.632-4.096 8.192-38.4-61.44-18.944-89.088-11.776-91.648 24.064-174.592 66.048-248.32 123.904-2.56 2.048-6.144 0.512-6.144-3.072-1.536-30.208-49.664-7.168-84.992 22.016C206.336 307.2 146.432 381.952 110.08 472.064c-31.744 78.336-32.256 157.184-5.632 230.912 1.024 2.56 4.608 3.584 6.656 1.536 97.28-107.52 189.952-209.92 308.736-313.344 124.416-108.032 270.848-193.024 366.592-211.968 4.608-1.024 6.656 5.12 2.56 7.168C450.048 364.032 222.208 649.728 1.024 942.08c-2.048 2.56 0 6.144 3.072 6.144h378.368c4.096 0 7.68-3.584 7.68-7.68s-3.584-7.68-7.68-7.68H51.712c-3.584 0-5.12-4.608-2.56-7.168 2.048-1.536 4.096-3.584 6.144-6.144 26.112-28.672 47.616-61.44 75.264-89.088 34.816-34.304 36.864-31.744 67.072-32.256 58.368-1.536 117.76-5.632 175.104-16.384 122.368-22.528 226.816-78.336 306.176-174.592 17.92-21.504 34.816-55.808 2.56-61.952-3.584-1.024-4.096-5.632-1.024-7.168 11.264-5.12 20.48-9.216 29.184-13.824 93.696-52.224 180.736-112.128 235.52-206.336 13.824-23.04 29.184-66.56-7.168-66.048-3.584 0-5.632-4.096-2.56-6.656 24.576-23.552 48.64-44.032 68.608-68.096 32.768-38.912 24.576-66.048-22.528-86.016z" p-id="2451"></path></svg>
