<svg t="1571992675600" class="icon" viewBox="0 0 1024 1024" version="1.1" xmlns="http://www.w3.org/2000/svg" p-id="3252" width="200" height="200"><path d="M921.088 764.416h-182.784l88.576 150.528c9.216 18.432 3.072 40.96-13.824 51.712-18.432 9.216-40.96 3.072-51.712-13.824l-109.568-188.928H385.024l-109.568 188.928c-10.752 18.432-33.28 24.576-51.712 13.824s-24.576-33.28-13.824-51.712l88.576-150.528H102.912c-27.648 0-51.712-23.04-51.712-51.712v-609.28c1.536-28.672 24.576-51.712 51.712-51.712h818.176c27.648 0 51.712 23.04 51.712 51.712v610.816c0 27.648-23.04 50.176-51.712 50.176z m-257.536-368.64c-3.072-9.216-10.752-16.896-19.968-19.968L432.128 254.464c-28.672-16.896-53.248-3.072-53.248 30.72v243.712c0 33.28 24.576 47.104 53.248 30.72l211.456-121.856c16.896-6.656 26.112-25.088 19.968-41.984z" p-id="3253"></path></svg>
