<svg t="1576478624828" class="icon" viewBox="0 0 1024 1024" version="1.1" xmlns="http://www.w3.org/2000/svg" p-id="6172" width="200" height="200"><path d="M512 834.1504s-298.6496 183.552-316.9792 168.96 61.44-355.9424 61.44-355.9424S-10.24 422.7584 0.3072 395.008 354.4576 343.04 354.4576 343.04 482.5088 20.48 512 20.48c31.3344 0 157.6448 322.56 157.6448 322.56s344.6784 24.2176 354.3552 51.968-256 252.0064-256 252.0064 3.5328 22.4256 7.68 37.2224c0 1.7408-124.5184 3.5328-226.048 0a1034.752 1034.752 0 0 1-119.04-13.0048l295.1168-211.3024a2111.5392 2111.5392 0 0 0-215.04-24.2176c-118.6304-3.5328-239.0528 7.68-256 11.2128-11.8272 1.792 75.52 1.792 175.872 10.6496 70.2464 5.12 161.1264 24.2176 161.1264 24.2176l-295.0656 220.7232s59.5968 11.2128 269.1584 5.12 279.7568-20.48 279.7568-20.48a149.4528 149.4528 0 0 1-29.5424 11.2128 331.7248 331.7248 0 0 0-33.6384 9.472c22.4256 98.56 61.44 276.224 46.6432 290.9696-21.8112 24.7808-316.928-164.6592-316.928-164.6592z m0 0" fill="#FFCE00" p-id="6173"></path></svg>
