<svg t="1579247748409" class="icon" viewBox="0 0 1024 1024" version="1.1" xmlns="http://www.w3.org/2000/svg" p-id="17703" width="30" height="30"><path d="M711.168 1024H312.832c-11.776 0-20.992-9.728-20.992-20.992v-180.736c0-11.776 9.728-20.992 20.992-20.992h398.336c11.776 0 20.992 9.728 20.992 20.992v180.736c0 11.776-9.216 20.992-20.992 20.992z" fill="#707070" p-id="17704"></path><path d="M640 971.264H384c-6.144 0-10.752-4.608-10.752-10.752v-102.4c0-6.144 4.608-10.752 10.752-10.752h256c6.144 0 10.752 4.608 10.752 10.752v102.4c0 5.632-4.608 10.752-10.752 10.752z" fill="#BFBFBF" p-id="17705"></path><path d="M932.352 56.832h-121.344V19.968c0-11.264-9.216-19.968-19.968-19.968h-558.08c-11.264 0-19.968 9.216-19.968 19.968V56.32H91.648c-23.552 0-42.496 18.944-42.496 42.496V225.28c0 109.568 76.8 200.704 179.712 223.232 33.792 97.792 116.224 172.544 218.624 194.56v110.08h128.512v-110.08c8.704-2.048 17.408-4.096 25.6-6.656 2.048-0.512 3.584-1.536 5.632-2.048 41.472-13.824 78.336-36.352 109.568-65.536l6.144-6.144c9.728-9.728 19.456-20.48 27.648-32.256l0.512-0.512c2.048-3.072 4.096-5.632 6.144-8.704l6.144-9.216c0.512-1.024 1.024-2.048 2.048-3.072 9.216-14.848 17.408-30.72 24.064-47.616 0.512-1.536 1.024-2.56 1.536-4.096 1.536-3.584 2.56-6.656 3.584-10.24 102.912-24.576 179.2-116.736 179.2-226.816V99.328c1.024-23.552-18.432-42.496-41.472-42.496zM102.4 225.28V109.568h110.592v241.152c0 12.8 1.024 25.6 2.56 37.888C149.504 363.52 102.4 300.032 102.4 225.28z m819.2-5.12c0 75.264-46.592 140.288-112.64 166.912 1.536-11.776 2.048-24.064 2.048-36.352V109.568H921.6V220.16z" fill="#e69360" p-id="17706"></path><path d="M522.24 173.056l31.744 64.512c1.536 3.072 4.608 5.12 8.192 5.632l71.168 10.24c8.704 1.024 12.288 11.776 6.144 17.92l-51.2 50.176c-2.56 2.56-3.584 6.144-3.072 9.216l12.288 70.656c1.536 8.704-7.68 15.36-15.36 11.264l-68.608-35.84-68.608 35.84c-7.68 4.096-16.896-2.56-15.36-11.264l12.288-70.656c0.512-3.584-0.512-6.656-3.072-9.216l-51.2-50.176c-6.144-6.144-3.072-16.896 6.144-17.92l71.168-10.24c3.584-0.512 6.656-2.56 8.192-5.632l31.744-64.512c2.56-7.68 13.824-7.68 17.408 0z" fill="#FCF5E0" p-id="17707"></path><path d="M611.328 801.28H412.672v-61.952c0-11.776 9.728-20.992 20.992-20.992h156.16c11.776 0 20.992 9.728 20.992 20.992l0.512 61.952z" fill="#e69360" p-id="17708"></path></svg>
