<svg t="1572688430295" class="icon" viewBox="0 0 1024 1024" version="1.1" xmlns="http://www.w3.org/2000/svg" p-id="2446" width="30" height="30"><path d="M883.76520518 73.7c48.6-19.8 95.4 31.05 72.45 78.3L759.56520518 789.2c-17.55 36-33.3 55.8-93.15 13.95l-251.55-144c-7.2-4.05-9-13.95-3.6-20.25l385.2-447.3c7.65-9-4.05-21.15-13.5-13.95L289.31520518 570.05c-7.65 6.3-18.45 7.2-26.1 2.25L77.36520518 465.65C49.91520518 435.95 60.71520518 388.25 98.06520518 373.4L883.76520518 73.7zM413.06520518 685.7l129.15 88.2c13.5 9 17.1 28.8 7.2 42.3l-93.15 126.9c-15.3 20.25-47.25 12.6-51.3-12.6l-36-215.1c-4.5-25.65 23.85-43.65 44.1-29.7z" p-id="2447"></path></svg>
