<svg t="1572598489140" class="icon" viewBox="0 0 1024 1024" version="1.1" xmlns="http://www.w3.org/2000/svg" p-id="2428" width="200" height="200"><path d="M896.43113809 612.59880253c-24.25149668-26.04790459-39.5209582-61.07784434-39.52095821-100.59880253s15.26946065-74.55089795 39.5209582-100.59880253l9.88023955-9.88023956c14.37125713-13.47305362 20.65868261-40.41916172 14.37125714-59.28143731 0 0-6.28742549-17.06586856-27.84431162-55.68862235-22.45508964-38.62275469-33.23353271-52.0958083-33.23353273-52.09580831-9.88023955-11.67664658-27.84431162-18.86227559-43.11377226-18.86227559-4.49101758 0-8.98203604 0.89820352-13.47305449 1.79640703l-13.47305361 4.49101846c-10.77844307 2.69461055-22.45508964 3.59281406-33.23353272 3.59281407-24.25149668 0-48.50299424-6.28742549-70.95808388-18.86227558-31.43712568-18.86227559-54.79041885-49.40119776-65.56886192-84.4311375l-4.49101846-14.37125802c-4.49101758-19.76047911-24.25149668-38.62275469-43.11377226-42.21556875 0 0-17.06586856-3.59281406-61.07784434-3.59281406H503.01796396c-38.62275469 0-52.99401182 2.69461055-52.99401182 2.69461055-19.76047911 4.49101758-39.5209582 23.35329317-43.11377225 43.11377226l-2.69461143 15.71856328c-9.88023955 34.13173623-32.3353292 64.67065839-65.56886192 84.4311375-22.45508964 13.47305362-46.70658721 19.76047911-70.95808388 19.76047911-11.67664658 0-22.45508964-1.79640703-34.13173623-4.49101758l-13.4730545-4.49101846c-4.49101758-0.89820352-8.98203604-1.79640703-13.47305361-1.79640703-16.16766503 0-33.23353271 7.18562901-43.11377227 18.86227558 0 0-11.67664658 13.47305362-33.23353271 52.09580831S102.86826347 343.13772412 102.86826347 343.13772412c-6.28742549 18.86227559 0 44.9101793 14.37125713 59.28143731l10.77844307 10.77844306c24.25149668 26.04790459 38.62275469 61.07784434 38.62275469 99.70059903s-15.26946065 73.65269443-39.5209582 100.59880253l-9.88023956 8.98203604c-14.37125713 13.47305362-20.65868261 40.41916172-14.37125713 59.28143731 0 0 6.28742549 17.06586856 27.84431163 55.68862235 22.45508964 38.62275469 33.23353271 52.0958083 33.23353271 52.09580831 9.88023955 11.67664658 26.9461081 18.86227559 43.11377227 18.86227559 4.49101758 0 8.98203604-0.89820352 13.47305449-1.79640703l13.47305361-4.49101846c10.77844307-2.69461055 22.45508964-3.59281406 34.13173623-3.59281407 24.25149668 0 48.50299424 6.28742549 70.95808389 18.86227558 33.23353271 19.76047911 55.68862237 50.29940127 65.56886279 84.4311375l2.69461055 14.37125802c4.49101758 19.76047911 24.25149668 38.62275469 43.11377227 42.21556875 0 0 17.06586856 3.59281406 61.07784433 3.59281406s61.07784434-3.59281406 61.07784434-3.59281406c19.76047911-3.59281406 38.62275469-22.45508964 43.11377226-42.21556875l2.69461055-13.4730545c9.88023955-35.02993974 32.3353292-65.56886192 65.56886279-84.4311375 22.45508964-13.47305362 46.70658721-19.76047911 70.95808389-19.7604791 11.67664658 0 22.45508964 1.79640703 34.13173623 4.49101758l13.47305361 4.49101846c4.49101758 0.89820352 8.98203604 1.79640703 13.4730545 1.79640703 16.16766503 0 33.23353271-7.18562901 43.11377226-18.86227559 0 0 11.67664658-13.47305362 33.23353271-52.0958083 22.45508964-38.62275469 27.84431162-55.68862237 27.84431162-55.68862236 8.08383252-19.76047911 1.79640703-45.80838281-12.57485009-59.28143731l-11.22754483-10.77844307z m-384.43113809 49.40119776c-82.63473047 0-149.55089854-67.36526982-149.55089854-149.55089853s67.36526982-149.55089854 149.55089854-149.55089853 149.55089854 67.36526982 149.55089854 149.55089853-66.91616807 149.55089854-149.55089854 149.55089853z" p-id="2429"></path></svg>
