<svg t="1571910339158" class="icon" viewBox="0 0 1024 1024" version="1.1" xmlns="http://www.w3.org/2000/svg" p-id="2621" width="200" height="200"><path d="M512 0c24.064 0 43.52 19.456 43.52 43.52S536.064 87.04 512 87.04c-234.496 0-424.96 190.464-424.96 424.96s190.464 424.96 424.96 424.96 424.96-190.464 424.96-424.96c0-24.064 19.456-43.52 43.52-43.52s43.52 19.456 43.52 43.52c0 282.624-229.376 512-512 512S0 794.624 0 512 229.376 0 512 0z m263.68 217.6c-16.384-16.896-15.872-43.52 0.512-59.904 16.384-16.384 43.008-16.896 60.416 0L911.36 232.448c22.528 22.528 22.528 59.392 0 81.92L836.096 389.12c-16.896 16.896-43.52 16.896-60.416 0-16.896-16.896-16.896-43.52 0-60.416l12.8-12.8h-55.296c-150.016 0-201.216 64-201.216 257.024 0 23.552-18.944 42.496-42.496 42.496-23.552 0-42.496-18.944-42.496-42.496 0-239.104 87.04-342.528 286.72-342.528H788.48l-12.8-12.8z" p-id="2622"></path></svg>
