<svg t="1572243713163" class="icon" viewBox="0 0 1024 1024" version="1.1" xmlns="http://www.w3.org/2000/svg" p-id="2785" width="200" height="200"><path d="M343.552 784.896c13.312 0 25.6 2.56 37.376 7.168 11.776 4.608 22.016 11.776 31.232 20.48 9.216 8.704 15.872 18.944 20.992 30.72 4.608 11.776 7.168 24.064 7.168 37.376 0 13.312-2.56 25.6-7.168 37.376-4.608 11.776-11.776 22.016-20.992 30.72s-19.456 15.36-31.232 20.992c-11.776 5.12-24.064 7.68-37.376 7.68-13.824 0-26.624-2.56-37.888-7.68s-21.504-12.288-30.72-20.992c-9.216-8.704-15.872-18.944-20.992-30.72-4.608-11.776-7.168-24.064-7.168-37.376 0-13.312 2.56-25.6 7.168-37.376s11.776-22.016 20.992-30.72c9.216-8.704 19.456-15.36 30.72-20.48 11.264-4.608 24.064-7.168 37.888-7.168z m431.616 2.048c13.312 0 25.6 2.56 37.888 7.168 12.288 4.608 22.528 11.776 31.232 20.48 8.704 8.704 15.36 18.944 20.992 30.72 5.12 11.776 7.68 24.064 7.68 37.376s-2.56 25.6-7.68 37.376-12.288 22.016-20.992 30.72c-8.704 8.704-18.944 15.36-31.232 20.992-12.288 5.12-24.576 7.68-37.888 7.68s-25.6-2.56-37.376-7.68-22.016-12.288-30.72-20.992c-8.704-8.704-15.36-18.944-20.992-30.72-5.12-11.776-7.68-24.064-7.68-37.376s2.56-25.6 7.68-37.376 12.288-22.016 20.992-30.72c8.704-8.704 18.944-15.36 30.72-20.48 11.776-4.608 24.576-7.168 37.376-7.168z m174.592-589.312c19.456 0 34.304 2.56 45.056 7.68 10.752 5.12 18.432 11.776 23.04 19.456 4.608 7.68 6.656 15.872 6.144 24.576-0.512 8.704-1.536 15.872-3.584 22.528-2.048 6.144-6.656 18.944-12.8 38.4-6.656 19.456-13.824 40.448-22.528 64s-16.384 46.08-24.576 69.12c-8.192 23.04-13.824 40.96-17.92 53.76-9.216 27.648-20.48 47.104-34.304 57.856-13.824 10.752-30.72 15.872-50.688 15.872H312.32l15.36 93.184h523.264c33.28 0 49.664 14.336 49.664 42.496 0 13.824-3.072 25.6-9.728 35.84-6.656 10.24-19.456 14.848-38.912 14.848H308.224c-13.824 0-25.6-3.072-34.816-9.216-9.216-6.144-16.896-14.336-23.552-24.576-6.144-10.24-11.264-20.992-14.848-32.768s-6.656-23.04-8.704-33.28c-0.512-4.096-2.56-14.336-5.632-30.208-3.072-15.872-7.168-35.84-11.264-59.904-4.608-24.064-9.728-50.688-14.848-79.872-5.632-29.184-11.264-58.88-16.384-88.576-13.312-70.144-28.16-147.968-44.544-233.472H54.784c-10.24 0-18.944-2.56-26.112-7.68s-12.8-11.264-16.896-18.432C7.168 132.096 4.096 124.416 2.56 115.712S0 99.328 0 92.672c0-13.824 4.608-25.088 13.824-34.304S35.84 45.056 51.712 45.056h105.472c13.824 0 25.088 2.048 33.28 6.144 8.192 4.096 14.848 9.216 19.968 15.36 4.608 6.144 8.192 12.8 10.24 19.968 2.048 7.168 3.584 12.8 5.12 17.408 1.536 5.632 2.56 13.312 4.096 23.552 1.536 10.24 2.56 20.48 4.096 30.72 2.048 12.288 4.096 25.6 6.144 39.424h709.632z" p-id="2786"></path></svg>
