<svg t="1576479391132" class="icon" viewBox="0 0 1024 1024" version="1.1" xmlns="http://www.w3.org/2000/svg" p-id="8179" width="200" height="200"><path d="M940.297481 639.544889s-29.108148-107.633778-82.450962-173.24563c0 0 29.108148-54.328889-19.399112-129.15674 0 0-11.643259-322.920296-328.817777-322.920297S180.811852 337.142519 180.811852 337.142519c-48.507259 74.827852-19.399111 129.156741-19.399111 129.15674C108.069926 531.911111 78.961778 639.544889 78.961778 639.544889c-27.154963 131.223704 24.25363 154.794667 32.009481 156.842667 7.774815 2.048 25.220741-18.450963 31.042371-27.685926 5.82163-9.216 18.432-38.949926 21.333333-40.997926 2.920296-2.048 7.774815 15.378963 7.774815 15.378963 20.366222 66.635852 64 114.820741 64 114.82074-43.633778 16.402963-73.709037 48.165926-73.709037 48.165926s-55.296 84.062815 92.16 100.465778c147.418074 16.402963 244.432593-34.853926 244.432592-34.853926h23.267556s96.995556 51.256889 244.432592 34.853926c147.437037-16.402963 92.16-100.465778 92.16-100.465778s-30.094222-31.762963-73.728-48.165926c0 0 43.633778-48.184889 64.018963-114.82074 0 0 4.835556-17.445926 7.755852-15.36 2.901333 2.029037 15.511704 31.762963 21.333334 40.978963 5.82163 9.234963 23.286519 29.733926 31.04237 27.685926 7.774815-2.048 59.164444-25.618963 32.009481-156.823704z" p-id="8180" fill="#1296db"></path></svg>
