<svg t="1572245200374" class="icon" viewBox="0 0 1024 1024" version="1.1" xmlns="http://www.w3.org/2000/svg" p-id="2346" width="200" height="200"><path d="M81.92 0h860.16a81.92 81.92 0 0 1 81.92 81.92v860.16a81.92 81.92 0 0 1-81.92 81.92H81.92a81.92 81.92 0 0 1-81.92-81.92V81.92a81.92 81.92 0 0 1 81.92-81.92z" fill="" p-id="2347"></path><path d="M392.8064 231.0144a564.6336 564.6336 0 0 1-63.488 125.952 240.4352 240.4352 0 0 1-28.8768 34.4064l-11.4688 11.6736 33.5872 19.2512 33.3824 19.0464 7.3728-7.168c8.8064-8.6016 28.8768-30.9248 38.7072-43.008l7.168-9.0112 20.48-8.192 20.8896-9.216h2.6624l-3.6864 6.5536a638.5664 638.5664 0 0 1-64.3072 95.6416 72.4992 72.4992 0 0 0-7.5776 9.6256 249.4464 249.4464 0 0 0 20.48 18.2272l20.48 17.408h-40.96v48.3328H512V675.84h-8.8064a62.8736 62.8736 0 0 1-40.96-13.9264c-7.9872-8.8064-10.24-24.3712-7.168-51.8144 0-7.9872 1.4336-15.9744 1.4336-18.0224v-3.8912H409.6a320.1024 320.1024 0 0 0-49.152 1.2288 77.2096 77.2096 0 0 0-4.9152 34.6112 154.624 154.624 0 0 0 4.096 47.7184 85.4016 85.4016 0 0 0 68.1984 67.7888 189.6448 189.6448 0 0 0 45.8752 1.8432 477.5936 477.5936 0 0 0 51.6096-1.6384 340.1728 340.1728 0 0 0 154.8288-51.6096 47.3088 47.3088 0 0 1 10.8544-6.3488s3.4816 11.6736 6.9632 24.9856 6.5536 24.1664 6.7584 24.3712 17.8176-6.7584 38.912-15.5648a333.2096 333.2096 0 0 0 38.2976-17.2032c0-1.6384-51.2-126.7712-51.8144-127.1808s-61.44 18.432-63.0784 19.2512 2.2528 9.8304 5.5296 20.48 5.7344 21.504 5.7344 22.1184a146.8416 146.8416 0 0 1-25.1904 15.5648 287.9488 287.9488 0 0 1-28.672 12.0832v-100.5568H757.76V512h-133.12v-60.2112h134.5536V403.456H521.0112l5.3248-6.5536a166.2976 166.2976 0 0 0 28.4672-45.2608s-8.3968-2.6624-18.2272-5.3248l-20.48-5.5296a469.1968 469.1968 0 0 1 81.92-26.2144c59.5968-14.7456 105.8816-17.2032 137.8304-6.7584a71.2704 71.2704 0 0 1 30.5152 18.6368 49.5616 49.5616 0 0 1 12.6976 16.9984 86.8352 86.8352 0 0 1 9.0112 31.744c0 6.5536 1.024 55.7056 0 162.6112v153.3952l-2.6624 8.6016a73.1136 73.1136 0 0 1-20.48 34.2016 86.016 86.016 0 0 1-61.44 20.48 156.0576 156.0576 0 0 1-40.96-6.144 254.976 254.976 0 0 0-29.4912-5.5296s-13.312 51.8144-13.312 53.8624 3.072 2.4576 20.48 6.144a321.1264 321.1264 0 0 0 77.2096 7.3728 204.8 204.8 0 0 0 65.3312-6.5536 135.9872 135.9872 0 0 0 108.7488-122.88c3.4816-26.8288 6.5536-70.4512 7.9872-112.2304a1107.7632 1107.7632 0 0 0-10.8544-201.3184 102.4 102.4 0 0 0-18.2272-46.08c-38.5024-54.4768-122.88-77.2096-240.4352-64.1024A1042.8416 1042.8416 0 0 0 483.1232 286.72a40.96 40.96 0 0 1-9.0112 2.048 105.0624 105.0624 0 0 1 5.7344-11.8784 161.5872 161.5872 0 0 0 16.5888-35.0208s-94.8224-27.2384-96.6656-27.2384a110.592 110.592 0 0 0-6.9632 17.2032zM512 481.6896V512h-92.5696l29.2864-29.9008 29.4912-30.1056H512zM242.688 225.28a68.4032 68.4032 0 0 0-53.6576 47.3088 58.9824 58.9824 0 0 0 0 31.5392 73.1136 73.1136 0 0 0 111.2064 31.9488A59.1872 59.1872 0 0 0 327.68 286.72a55.7056 55.7056 0 0 0-17.6128-40.96 69.632 69.632 0 0 0-36.4544-20.48 115.712 115.712 0 0 0-30.9248 0z m-65.3312 183.0912c-11.6736 18.0224-20.48 33.3824-20.48 33.9968a475.9552 475.9552 0 0 0 40.96 26.2144c53.248 33.1776 49.9712 30.9248 58.1632 39.1168 22.9376 22.9376 23.1424 48.9472 1.024 81.92a988.7744 988.7744 0 0 1-113.2544 122.88 254.5664 254.5664 0 0 0-19.0464 18.8416s104.0384 65.536 105.2672 65.536 1.8432-1.8432 2.8672-4.096c3.6864-8.8064 29.696-64.1024 48.7424-103.8336 10.8544-22.7328 21.504-46.08 23.7568-51.6096a525.9264 525.9264 0 0 0 25.3952-86.6304 172.2368 172.2368 0 0 0 1.024-23.1424 79.2576 79.2576 0 0 0-2.048-23.1424 90.3168 90.3168 0 0 0-13.1072-28.0576 606.4128 606.4128 0 0 0-56.1152-54.8864C245.76 409.6 202.1376 376.6272 199.8848 375.808a269.5168 269.5168 0 0 0-22.528 32.5632z" fill="#FFFFFF" p-id="2348"></path></svg>
