<svg t="1578015943368" class="icon" viewBox="0 0 1024 1024" version="1.1" xmlns="http://www.w3.org/2000/svg" p-id="15317" width="200" height="200"><path d="M157.184 762.368c-17.92 0-31.744 14.336-31.744 32.256 0 17.408 14.336 31.744 32.256 31.744 2.56 0 138.24 1.024 222.208 94.208 6.144 7.168 15.36 10.752 24.064 10.752 7.68 0 15.36-2.56 21.504-8.192 13.312-11.776 14.336-31.744 2.56-45.056-104.448-115.712-264.192-116.224-270.848-115.712zM866.816 762.368c-6.144 0-162.816-0.512-270.848 115.2-12.288 12.8-11.264 33.28 1.536 45.056 6.144 5.632 13.824 8.704 22.016 8.704 8.704 0 17.408-3.584 23.552-10.24 87.552-93.696 220.16-94.72 222.72-94.72h0.512c17.408 0 32.256-14.336 32.256-31.744 0.512-17.92-13.824-32.256-31.744-32.256z" fill="#5D5D5D" p-id="15318"></path><path d="M834.048 589.824c69.12-116.736 85.504-268.288 39.424-376.832-5.12-11.776-16.384-19.456-29.184-19.456H834.56c-62.976 0-121.856 12.288-174.592 35.84-37.888-69.632-79.872-120.832-127.488-155.648-1.536-1.024-3.072-2.56-4.608-3.584-9.216-5.632-20.48-6.656-30.72-2.56-3.072 1.536-6.144 3.072-8.704 5.12-47.616 34.304-90.624 86.016-128 154.624C308.224 204.8 250.88 193.536 189.44 193.536h-9.728c-12.8 0.512-24.064 8.192-29.184 19.456-45.568 108.544-29.696 260.096 39.424 376.832 59.904 100.352 152.576 163.328 261.12 177.152 3.072 1.024 6.144 1.536 9.216 1.536h18.432V926.72c0 17.92 14.336 31.744 32.256 31.744s32.256-14.336 32.256-31.744v-158.208h18.944c3.072 0 6.656-0.512 9.728-1.536 109.568-13.824 202.24-76.8 262.144-177.152z" fill="#5D5D5D" p-id="15319"></path></svg>
