<svg t="1578968651022" class="icon" viewBox="0 0 1036 1024" version="1.1" xmlns="http://www.w3.org/2000/svg" p-id="7531" width="200" height="200"><path d="M110.239688 1012.026859c-61.16244 0-110.937459-49.781131-110.937459-110.95885L-0.697771 515.416532c0-62.960346 51.837773-118.199372 110.937459-118.199372l108.483546 0c135.282031 0 237.285982-103.879275 237.285982-241.624387l0-28.444614c0-58.875584 53.34231-110.510647 114.133964-110.510647l2.896005 0c46.62639 0 89.496022 30.907695 104.2358 75.147403l7.199776 19.971534c21.813242 65.388794 24.610438 134.310245 8.213326 199.783586l-3.637578 15.277622c-1.091986 9.905294-5.91934 27.450418-13.908565 45.025082l234.52342 0c34.376178 0 66.222044 16.103743 87.369093 44.163309 21.3793 28.394701 28.360067 65.45908 18.678874 99.156841L897.136043 929.268148c-13.256633 48.625989-57.301779 82.758711-107.020773 82.758711L110.232557 1012.026859 110.239688 1012.026859zM110.239688 453.833392c-27.920013 0-54.321227 29.92776-54.321227 61.59027l0 385.644346c0 29.975636 24.374113 54.355861 54.321227 54.355861l679.889843 0c24.268174 0 45.850184-17.013392 52.501929-41.385467l118.682209-414.481138c4.806981-16.727153 1.259044-35.216559-9.486631-49.485724-10.346367-13.73947-25.701406-21.610532-42.148432-21.610532L590.249174 428.461008l0-56.615213 18.643222 0c8.807196-6.730181 23.183318-39.385869 23.813859-49.627316l0-1.225429 0.474688-3.916686 4.520742-18.980393c13.836241-55.286901 11.501509-113.225333-6.696565-167.798165l-7.211999-19.973571c-7.344423-22.035306-28.151245-37.089846-50.753936-37.089846l-2.888874 0c-29.578365 0-57.524862 26.197486-57.524862 53.907658l0 28.444614c0 170.016772-126.356673 298.23247-293.897121 298.23247L110.246818 453.819131 110.239688 453.833392zM110.239688 453.833392" p-id="7532"></path><path d="M790.136661 991.094744 110.246818 991.094744c-49.634446 0-90.006363-40.386177-90.006363-90.033866L20.240456 515.416532c0-51.824531 42.058791-97.269294 90.006363-97.269294l108.481508 0c147.20424 0 258.203836-112.87492 258.203836-262.547334l0-28.437484c0-47.737731 43.561291-89.599924 93.218147-89.599924l2.888874 0c37.748908 0 72.454108 25.01484 84.381411 60.840548l7.367852 20.448259c20.412607 61.183831 23.022372 126.000147 7.604177 187.61079l-4.044017 16.992c-0.657025 11.655324-12.095378 48.481341-30.473753 69.319741l271.789491 0c27.751936 0 53.496125 13.068183 70.663332 35.83182 17.440203 23.163964 23.163964 53.363702 15.277622 80.780504l-118.589512 414.129706c-10.836335 39.755637-46.584626 67.58499-86.901536 67.58499L790.136661 991.094744zM110.239688 432.908408c-39.37772 0-75.244174 39.32475-75.244174 82.515255l0 385.644346c0 41.50363 33.752768 75.272696 75.244174 75.272696l679.889843 0c33.670258 0 63.562365-23.358525 72.68534-56.798569l118.618034-414.228514c6.604888-22.987738 1.790776-48.33975-12.892977-67.830483-14.334358-19.04253-35.789037-29.954245-58.861323-29.954245L611.18027 407.528893l0-14.762188c20.350469 0 42.44282-55.859379 42.44282-70.326161l0.203729-1.700117 4.238578-17.790617c14.753021-58.953001 12.250212-120.906927-7.214037-179.25791l-7.372945-20.448259c-10.011233-30.038792-38.937666-50.913863-70.439231-50.913863l-2.888874 0c-41.058482 0-78.456977 35.656614-78.456977 74.832642l0 28.444614c0 158.094563-117.35899 277.307485-272.97723 277.307485L110.232557 432.914519 110.239688 432.908408zM110.239688 432.908408" p-id="7533"></path><path d="M230.593491 986.653456c-15.605626 0-28.310153-12.690267-28.310153-28.30506L202.283338 450.894604c0-15.598495 12.711658-28.303023 28.310153-28.303023 15.600532 0 28.30506 12.709621 28.30506 28.303023l0 507.453792C258.898551 973.956059 246.201154 986.653456 230.593491 986.653456L230.593491 986.653456zM230.593491 986.653456" p-id="7534"></path><path d="M230.593491 965.721341c-4.084762 0-7.380076-3.295313-7.380076-7.380076L223.213416 450.894604c0-4.084762 3.295313-7.380076 7.380076-7.380076 4.0868 0 7.382113 3.295313 7.382113 7.380076l0 507.446661C237.975604 962.418897 234.680291 965.721341 230.593491 965.721341L230.593491 965.721341zM230.593491 965.721341" p-id="7535"></path></svg>
