<svg t="1572245290281" class="icon" viewBox="0 0 1024 1024" version="1.1" xmlns="http://www.w3.org/2000/svg" p-id="3299" width="200" height="200"><path d="M694.859852 219.435796H585.142857v292.564204c0 40.452091-32.68896 73.155501-73.142857 73.155501-40.439448 0-73.139245-32.701603-73.139245-73.155501V219.435796h-109.704351c-20.200758 0-36.579557-16.378798-36.579557-36.57775 0-20.184502 16.378798-36.563301 36.579557-36.563301h365.703448c20.186309 0 36.575944 16.378798 36.575944 36.563301 0 20.198952-16.389635 36.57775-36.575944 36.57775zM877.717898 0H146.296552C65.535061 0 0 65.549511 0 146.294745v459.260198c14.048775-9.22075 29.114452-16.313774 45.572723-19.462014 33.640837-6.574639 120.393558-6.05806 200.558997 134.523613 26.112515 46.009828 51.273152 78.473011 136.768744 78.473011h257.837828c85.430568 0 110.593011-32.464989 136.77055-78.473011 80.165438-140.514843 166.905516-141.096446 200.479523-134.523613 16.615413 3.227714 31.894223 10.463429 46.009829 19.830483V146.294745C1024 65.549511 958.464939 0 877.717898 0z" p-id="3300"></path><path d="M965.054028 662.752495c-39.937319-7.380213-85.072937 28.308878-124.930782 98.301688-39.725991 69.557512-88.871416 116.015282-199.460815 116.015282H382.900464c-110.656229 0-159.734824-46.457771-199.525839-116.015282-39.792821-70.059641-85.363738-105.761374-124.851308-98.301688C30.651544 668.019431 8.268873 695.889397 0 733.776657v143.939435c0 54.779024 30.505241 102.047787 75.044806 127.047671 9.511552-71.605764 70.139114-127.047671 144.39099-127.047671 40.439448 0 73.139245 65.535061 73.139245 146.282102H146.294745c0-80.748847 32.68896-146.282102 73.141051-146.282102 80.747041 0 146.282102 65.535061 146.282102 146.282102h73.142857c0-40.439448 32.699797-73.139245 73.139245-73.139245 40.452091 0 73.142857 32.699797 73.142857 73.139245h73.139245c0-80.748847 65.549511-146.282102 146.296551-146.282102 40.439448 0 73.141051 65.535061 73.141051 146.282102h-146.282101c0-80.748847 32.687154-146.282102 73.14105-146.282102 74.239232 0 134.864989 55.443713 144.376541 127.047671 44.539566-25.00169 75.044806-72.270453 75.044806-127.047671v-142.62812c-8.043095-38.61336-30.716568-66.989067-58.945972-72.335477z" p-id="3301"></path></svg>
