<svg t="1572683647948" class="icon" viewBox="0 0 1024 1024" version="1.1" xmlns="http://www.w3.org/2000/svg" p-id="3749" width="30" height="30"><path d="M512 0a512 512 0 1 0 512 512A512 512 0 0 0 512 0z m206.677 601.714H475.648a39.822 39.822 0 0 1-4.779-1.707 20.025 20.025 0 0 1-1.877 0.853 40.846 40.846 0 0 1-15.701-7.338 55.808 55.808 0 0 1-12.971-6.144 47.275 47.275 0 0 1-4.95-10.525 39.026 39.026 0 0 1-8.703-18.944c0-0.853 1.024-1.365 1.024-2.218s-1.024-1.707-1.024-2.674V220.274a42.78 42.78 0 1 1 84.992 0v294.172h207.018a43.918 43.918 0 1 1 0 87.268z m0 0" p-id="3750"></path></svg>
