<svg t="1576478369372" class="icon" viewBox="0 0 1219 1024" version="1.1" xmlns="http://www.w3.org/2000/svg" p-id="2837" width="200" height="200"><path d="M844.8 355.2c-204.8 0-371.2 144-371.2 313.6 0 182.4 166.4 326.4 371.2 332.8 57.6-6.4 112-19.2 166.4-41.6l102.4 64-19.2-105.6c73.6-60.8 124.8-147.2 124.8-249.6-3.2-169.6-169.6-313.6-374.4-313.6z m-124.8 249.6c-38.4 0-60.8-22.4-60.8-64 0-19.2 22.4-41.6 60.8-41.6 19.2 0 41.6 22.4 41.6 41.6 0 41.6-22.4 64-41.6 64z m249.6 0c-19.2 0-41.6-22.4-41.6-64 0-19.2 22.4-41.6 41.6-41.6 38.4 0 60.8 22.4 60.8 41.6 0 41.6-22.4 64-60.8 64z m-124.8-291.2c6.4 6.4 12.8 6.4 19.2 0C835.2 140.8 652.8 0 432 0 195.2 0 0 169.6 0 377.6c0 118.4 64 224 166.4 291.2l-41.6 147.2 144-83.2c57.6 12.8 112 22.4 166.4 22.4h19.2c-6.4-25.6-9.6-54.4-19.2-83.2 6.4-195.2 185.6-352 409.6-358.4z m-246.4-124.8c38.4 0 60.8 22.4 60.8 41.6 0 38.4-22.4 64-60.8 64-19.2 0-41.6-22.4-41.6-64 0-19.2 22.4-41.6 41.6-41.6zM204.8 230.4c0-19.2 22.4-41.6 41.6-41.6 38.4 0 60.8 22.4 60.8 41.6 0 38.4-22.4 64-60.8 64-16-3.2-41.6-25.6-41.6-64z" fill="#7bc549" p-id="2838"></path></svg>
