<svg t="1576478675379" class="icon" viewBox="0 0 1024 1024" version="1.1" xmlns="http://www.w3.org/2000/svg" p-id="6976" width="200" height="200"><path d="M682.564267 27.272533S614.6048 0 511.9488 0 341.333333 31.232 341.333333 31.232L682.666667 375.466667l-0.1024-348.194134z" fill="#FB5453" p-id="6977"></path><path d="M867.498667 151.739733C792.149333 77.602133 719.3088 51.2 719.3088 51.2L716.8 546.133333l256-251.630933c0 0.1024-29.8496-68.608-105.301333-142.762667z" fill="#6468F1" p-id="6978"></path><path d="M991.266133 341.333333L631.466667 682.666667h363.997866S1024 614.690133 1024 511.9488C1023.8976 409.309867 991.266133 341.333333 991.266133 341.333333z" fill="#5283F0" p-id="6979"></path><path d="M729.480533 972.8s68.727467-27.835733 142.7968-98.235733c74.069333-70.4 100.522667-138.325333 100.522667-138.325334L477.866667 733.866667l251.613866 238.933333z" fill="#00B2FE" p-id="6980"></path><path d="M341.435733 996.727467S409.3952 1024 512.0512 1024C614.792533 1024 682.666667 992.768 682.666667 992.768L341.333333 648.533333l0.1024 348.194134z" fill="#66D020" p-id="6981"></path><path d="M156.501333 872.260267C231.850667 946.397867 304.6912 972.8 304.6912 972.8L307.2 477.866667 51.2 729.4976c0.1024-0.1024 29.952 68.608 105.301333 142.762667z" fill="#9AD122" p-id="6982"></path><path d="M28.552533 341.333333S0 409.2928 0 512s32.648533 170.666667 32.648533 170.666667L392.533333 341.435733H28.552533V341.333333z" fill="#FFC71A" p-id="6983"></path><path d="M294.519467 51.2S225.792 79.035733 151.722667 149.435733C77.653333 219.835733 51.2 287.761067 51.2 287.761067L546.133333 290.133333 294.519467 51.2z" fill="#FF7612" p-id="6984"></path></svg>
